G75*
%MOIN*%
%OFA0B0*%
%FSLAX26Y26*%
%IPPOS*%
%LPD*%
%AMOC8*
5,1,8,0,0,1.08239X$1,22.5*
%
%ADD10R,0.051181X0.059055*%
%ADD11R,0.059055X0.051181*%
%ADD12R,0.070866X0.055118*%
%ADD13R,0.039622X0.039622*%
%ADD14C,0.032000*%
%ADD15C,0.024000*%
%ADD16C,0.016000*%
%ADD17C,0.010000*%
%ADD18C,0.012000*%
D10*
X00261598Y00531000D03*
X00261598Y00616000D03*
X00336402Y00616000D03*
X00336402Y00531000D03*
X00483598Y00361000D03*
X00558402Y00361000D03*
X00351402Y00976000D03*
X00351402Y01056000D03*
X00276598Y01056000D03*
X00276598Y00976000D03*
X00551598Y01346000D03*
X00626402Y01346000D03*
X00596598Y01551000D03*
X00671402Y01551000D03*
X00841598Y01186000D03*
X00916402Y01186000D03*
X01001598Y01186000D03*
X01076402Y01186000D03*
X01161598Y01186000D03*
X01236402Y01186000D03*
X00451402Y01551000D03*
X00376598Y01551000D03*
D11*
X00459000Y01388402D03*
X00459000Y01313598D03*
X00294000Y01308598D03*
X00294000Y01383402D03*
X00209000Y01383402D03*
X00209000Y01308598D03*
X00164000Y01093402D03*
X00164000Y01018598D03*
X00844000Y01028598D03*
X00844000Y01103402D03*
X00949000Y00678402D03*
X00949000Y00603598D03*
X01034000Y00573598D03*
X01034000Y00648402D03*
X00894000Y00363402D03*
X00894000Y00288598D03*
D12*
X01129000Y00304071D03*
X01129000Y00242929D03*
X01209000Y00242929D03*
X01209000Y00304071D03*
X01209000Y00437929D03*
X01209000Y00504071D03*
X01129000Y00504071D03*
X01129000Y00437929D03*
X01129000Y00637929D03*
X01209000Y00637929D03*
X01209000Y00109071D03*
X01129000Y00109071D03*
D13*
X00824000Y00286000D03*
X00764000Y00691000D03*
X00859000Y00786000D03*
X00854000Y00966000D03*
X00929000Y01051000D03*
X00984000Y01111000D03*
X01024000Y00961000D03*
X01079000Y00926000D03*
X01079000Y01021000D03*
X01159000Y01091000D03*
X01249000Y00991000D03*
X01144000Y00766000D03*
X01214000Y00726000D03*
X01054000Y00726000D03*
X01039000Y00806000D03*
X01074000Y01271000D03*
X01159000Y01261000D03*
X00944000Y01736000D03*
X00849000Y01736000D03*
X00599000Y01476000D03*
X00584000Y01251000D03*
X00519000Y01251000D03*
X00424000Y01221000D03*
X00374000Y01251000D03*
X00434000Y01061000D03*
X00439000Y00961000D03*
X00524000Y00936000D03*
X00589000Y00951000D03*
X00664000Y00936000D03*
X00754000Y00956000D03*
X00659000Y01156000D03*
X00449000Y01476000D03*
X00374000Y01476000D03*
X00264000Y01741000D03*
X00444000Y01891000D03*
X00059000Y01001000D03*
X00164000Y00866000D03*
X00224000Y00862000D03*
X00338000Y00862000D03*
X00344000Y00911000D03*
X00394000Y00676000D03*
X00439000Y00621000D03*
X00484000Y00427000D03*
X00559000Y00431000D03*
X00604000Y00691000D03*
X00314000Y00451000D03*
X00314000Y00366000D03*
X00309000Y00301000D03*
X00164000Y00646000D03*
X00109000Y00771000D03*
X00059000Y00361000D03*
D14*
X00209000Y01383402D02*
X00294000Y01383402D01*
X00451402Y01551000D02*
X00454000Y01551000D01*
X00454000Y01611000D01*
X00454000Y01676000D01*
X00719000Y01676000D01*
X00944000Y01676000D01*
X00944000Y01736000D01*
X00944000Y01876000D01*
X00954000Y01886000D01*
X01074000Y01886000D01*
X01074000Y01271000D01*
X00849000Y01736000D02*
X00849000Y01741000D01*
X00264000Y01741000D01*
X00444000Y01891000D02*
X00944000Y01891000D01*
X00944000Y01876000D01*
X00719000Y01676000D02*
X00719000Y01551000D01*
X00671402Y01551000D01*
D15*
X00551598Y01346000D02*
X00534000Y01346000D01*
X00494000Y01386000D01*
X00461402Y01386000D01*
X00459000Y01388402D01*
X00314000Y01388402D01*
X00314000Y01383402D01*
X00319000Y01383402D01*
X00319000Y01616000D01*
X00454000Y01616000D01*
X00454000Y01611000D01*
X00376598Y01551000D02*
X00376598Y01476000D01*
X00374000Y01476000D01*
X00314000Y01383402D02*
X00294000Y01383402D01*
D16*
X00294000Y01308598D02*
X00294000Y01251000D01*
X00374000Y01251000D01*
X00419000Y01216000D02*
X00279000Y01216000D01*
X00209000Y01286000D01*
X00209000Y01308598D01*
X00276598Y01056000D02*
X00276598Y00968402D01*
X00279000Y00966000D01*
X00279000Y00936000D01*
X00299000Y00916000D01*
X00344000Y00911000D01*
X00349000Y00958000D02*
X00436000Y00958000D01*
X00439000Y00961000D01*
X00489000Y01011000D01*
X00574000Y01011000D01*
X00589000Y00996000D01*
X00589000Y00951000D01*
X00729000Y00746000D02*
X00704000Y00721000D01*
X00704000Y00666000D01*
X00734000Y00636000D01*
X00804000Y00636000D01*
X00894000Y00546000D01*
X00894000Y00363402D01*
X00894000Y00288598D02*
X00826598Y00288598D01*
X00824000Y00286000D01*
X00539000Y00300000D01*
X00309000Y00301000D01*
X00314000Y00366000D02*
X00354000Y00366000D01*
X00604000Y00616000D01*
X00604000Y00691000D01*
X00729000Y00746000D02*
X00789000Y00746000D01*
X00809000Y00726000D01*
X00901402Y00726000D01*
X00949000Y00678402D01*
X01034000Y00573598D02*
X01029000Y00568598D01*
X01029000Y00186000D01*
X01105929Y00109071D01*
X01129000Y00109071D01*
X01041598Y00566000D02*
X01034000Y00573598D01*
X01041598Y00566000D02*
X01274000Y00566000D01*
X01274000Y00946000D01*
X01259000Y00956000D01*
X01249000Y00956000D01*
X01249000Y00991000D01*
X01209000Y00956000D02*
X01249000Y00916000D01*
X01249000Y00677929D01*
X01209000Y00637929D01*
X01214000Y00726000D02*
X01054000Y00726000D01*
X01034000Y00648402D02*
X01118528Y00648402D01*
X01129000Y00637929D01*
X01079000Y00926000D02*
X01079000Y01021000D01*
X00994000Y01111000D02*
X01009000Y01126000D01*
X01214000Y01126000D01*
X01234000Y01146000D01*
X01234000Y01183598D01*
X01236402Y01186000D01*
X01161598Y01186000D02*
X01159000Y01188598D01*
X01159000Y01261000D01*
X01161598Y01186000D02*
X01076402Y01186000D01*
X00994000Y01111000D02*
X00984000Y01111000D01*
X01159000Y01091000D02*
X01209000Y01041000D01*
X01209000Y00956000D01*
X00626402Y01346000D02*
X00624000Y01343598D01*
X00624000Y01296000D01*
X00584000Y01251000D01*
X00519000Y01251000D02*
X00459000Y01251000D01*
X00459000Y01313598D01*
X00429000Y01226000D02*
X00424000Y01221000D01*
X00419000Y01216000D01*
X00351402Y01056000D02*
X00351402Y00960402D01*
X00349000Y00958000D01*
X00351402Y00976000D02*
X00351402Y01056000D01*
X00276598Y01056000D02*
X00276598Y00976000D01*
X00224000Y00862000D02*
X00338000Y00862000D01*
X00394000Y00676000D02*
X00336402Y00616000D01*
X00336402Y00531000D01*
X00261598Y00531000D02*
X00261598Y00616000D01*
X00164000Y00646000D01*
X00059000Y00361000D02*
X00059000Y01001000D01*
X00374000Y01476000D02*
X00449000Y01476000D01*
X00599000Y01476000D01*
X00596598Y01476000D01*
X00596598Y01551000D01*
X00439000Y00961000D02*
X00439000Y00621000D01*
X00484000Y00427000D02*
X00484000Y00361000D01*
X00483598Y00361000D01*
D17*
X00045000Y00321189D02*
X00045000Y00256000D01*
X00648000Y00256000D01*
X00648000Y00043000D01*
X01322000Y00043000D01*
X01322000Y01932000D01*
X00045000Y01932000D01*
X00044000Y01931000D01*
X00045000Y01929000D01*
X00045000Y01040811D01*
X00083000Y01040811D01*
X00083000Y01161172D01*
X00086958Y01170728D01*
X00094272Y01178042D01*
X00103828Y01182000D01*
X00395094Y01182000D01*
X00389094Y01188000D01*
X00273430Y01188000D01*
X00263139Y01192263D01*
X00193139Y01262263D01*
X00192394Y01263008D01*
X00171188Y01263008D01*
X00159472Y01274724D01*
X00159472Y01342473D01*
X00171188Y01354189D01*
X00246812Y01354189D01*
X00251500Y01349501D01*
X00256188Y01354189D01*
X00331812Y01354189D01*
X00343527Y01342473D01*
X00343527Y01288434D01*
X00345905Y01290811D01*
X00402095Y01290811D01*
X00409472Y01283434D01*
X00409472Y01347473D01*
X00421188Y01359189D01*
X00496812Y01359189D01*
X00508527Y01347473D01*
X00508527Y01290811D01*
X00547095Y01290811D01*
X00551500Y01286406D01*
X00555905Y01290811D01*
X00581925Y01290811D01*
X00589578Y01299421D01*
X00580811Y01308188D01*
X00580811Y01383812D01*
X00592527Y01395527D01*
X00660276Y01395527D01*
X00671992Y01383812D01*
X00671992Y01308188D01*
X00660276Y01296472D01*
X00652021Y01296472D01*
X00652279Y01292084D01*
X00652000Y01291281D01*
X00652000Y01290430D01*
X00650183Y01286045D01*
X00648628Y01281561D01*
X00648063Y01280925D01*
X00647737Y01280139D01*
X00644381Y01276783D01*
X00623811Y01253642D01*
X00623811Y01222905D01*
X00612095Y01211189D01*
X00555905Y01211189D01*
X00551500Y01215594D01*
X00547095Y01211189D01*
X00490905Y01211189D01*
X00479189Y01222905D01*
X00479189Y01223000D01*
X00463811Y01223000D01*
X00463811Y01192905D01*
X00452906Y01182000D01*
X00619189Y01182000D01*
X00619189Y01184095D01*
X00630905Y01195811D01*
X00687095Y01195811D01*
X00698811Y01184095D01*
X00698811Y01137000D01*
X00794472Y01137000D01*
X00794472Y01137276D01*
X00800696Y01143500D01*
X00796008Y01148188D01*
X00796008Y01223812D01*
X00807724Y01235527D01*
X00875473Y01235527D01*
X00879000Y01232001D01*
X00882527Y01235527D01*
X00950276Y01235527D01*
X00959000Y01226804D01*
X00967724Y01235527D01*
X01035473Y01235527D01*
X01039000Y01232001D01*
X01042527Y01235527D01*
X01110276Y01235527D01*
X01119000Y01226804D01*
X01122145Y01229949D01*
X01119189Y01232905D01*
X01119189Y01289095D01*
X01130905Y01300811D01*
X01187095Y01300811D01*
X01198811Y01289095D01*
X01198811Y01232905D01*
X01198453Y01232547D01*
X01199000Y01232001D01*
X01202527Y01235527D01*
X01270276Y01235527D01*
X01281992Y01223812D01*
X01281992Y01148188D01*
X01270276Y01136472D01*
X01260360Y01136472D01*
X01257737Y01130139D01*
X01249861Y01122263D01*
X01229861Y01102263D01*
X01219570Y01098000D01*
X01198811Y01098000D01*
X01198811Y01090787D01*
X01224860Y01064737D01*
X01224861Y01064737D01*
X01232737Y01056861D01*
X01237000Y01046570D01*
X01237000Y01030811D01*
X01277095Y01030811D01*
X01288811Y01019095D01*
X01288811Y00970172D01*
X01289861Y00969737D01*
X01291838Y00967759D01*
X01294166Y00966208D01*
X01295738Y00963859D01*
X01297737Y00961861D01*
X01298808Y00959276D01*
X01300364Y00956953D01*
X01300918Y00954181D01*
X01302000Y00951570D01*
X01302000Y00948772D01*
X01302548Y00946030D01*
X01302000Y00943257D01*
X01302000Y00560430D01*
X01297737Y00550139D01*
X01289861Y00542263D01*
X01279570Y00538000D01*
X01264433Y00538000D01*
X01264433Y00402086D01*
X01252717Y00390370D01*
X01085283Y00390370D01*
X01073567Y00402086D01*
X01073567Y00529763D01*
X01071812Y00528008D01*
X01057000Y00528008D01*
X01057000Y00197598D01*
X01097968Y00156630D01*
X01252717Y00156630D01*
X01264433Y00144914D01*
X01264433Y00073227D01*
X01252717Y00061512D01*
X01085283Y00061512D01*
X01073567Y00073227D01*
X01073567Y00101835D01*
X01013139Y00162263D01*
X01005263Y00170139D01*
X01001000Y00180430D01*
X01001000Y00528008D01*
X00996188Y00528008D01*
X00984472Y00539724D01*
X00984472Y00548875D01*
X00984272Y00548958D01*
X00976958Y00556272D01*
X00975223Y00558008D01*
X00919333Y00558008D01*
X00922000Y00551570D01*
X00922000Y00408992D01*
X00931812Y00408992D01*
X00943527Y00397276D01*
X00943527Y00329527D01*
X00940001Y00326000D01*
X00943527Y00322473D01*
X00943527Y00254724D01*
X00931812Y00243008D01*
X00856188Y00243008D01*
X00852551Y00246645D01*
X00852095Y00246189D01*
X00795905Y00246189D01*
X00784189Y00257905D01*
X00784189Y00259922D01*
X00538252Y00272003D01*
X00348733Y00272827D01*
X00337095Y00261189D01*
X00280905Y00261189D01*
X00269189Y00272905D01*
X00269189Y00329095D01*
X00276094Y00336000D01*
X00274189Y00337905D01*
X00274189Y00394095D01*
X00285905Y00405811D01*
X00342095Y00405811D01*
X00348154Y00399752D01*
X00373402Y00425000D01*
X00353811Y00425000D01*
X00353811Y00422905D01*
X00342095Y00411189D01*
X00285905Y00411189D01*
X00274189Y00422905D01*
X00274189Y00479095D01*
X00285905Y00490811D01*
X00293188Y00490811D01*
X00290811Y00493188D01*
X00290811Y00568812D01*
X00295499Y00573500D01*
X00290811Y00578188D01*
X00290811Y00653812D01*
X00302527Y00665527D01*
X00345133Y00665527D01*
X00354189Y00674961D01*
X00354189Y00704095D01*
X00365905Y00715811D01*
X00422095Y00715811D01*
X00433811Y00704095D01*
X00433811Y00647905D01*
X00422095Y00636189D01*
X00394596Y00636189D01*
X00381992Y00623060D01*
X00381992Y00578188D01*
X00377304Y00573500D01*
X00381992Y00568812D01*
X00381992Y00493188D01*
X00370276Y00481472D01*
X00351434Y00481472D01*
X00353811Y00479095D01*
X00353811Y00477000D01*
X00388230Y00477000D01*
X00533000Y00621769D01*
X00533000Y00791172D01*
X00536958Y00800728D01*
X00544272Y00808042D01*
X00553828Y00812000D01*
X00756231Y00812000D01*
X00698230Y00870000D01*
X00570906Y00870000D01*
X00566650Y00869703D01*
X00565764Y00870000D01*
X00564828Y00870000D01*
X00560887Y00871633D01*
X00556842Y00872987D01*
X00556136Y00873600D01*
X00555272Y00873958D01*
X00552256Y00876975D01*
X00530159Y00896189D01*
X00495905Y00896189D01*
X00484189Y00907905D01*
X00484189Y00964095D01*
X00495905Y00975811D01*
X00552095Y00975811D01*
X00563811Y00964095D01*
X00563811Y00935837D01*
X00579723Y00922000D01*
X00624189Y00922000D01*
X00624189Y00964095D01*
X00635905Y00975811D01*
X00692095Y00975811D01*
X00703811Y00964095D01*
X00703811Y00962000D01*
X00714172Y00962000D01*
X00714189Y00961993D01*
X00714189Y00984095D01*
X00725905Y00995811D01*
X00763000Y00995811D01*
X00763000Y01035000D01*
X00473811Y01035000D01*
X00473811Y01032905D01*
X00462095Y01021189D01*
X00405905Y01021189D01*
X00394189Y01032905D01*
X00394189Y01085000D01*
X00322189Y01085000D01*
X00322189Y01018188D01*
X00320001Y01016000D01*
X00322189Y01013812D01*
X00322189Y00950811D01*
X00372095Y00950811D01*
X00383811Y00939095D01*
X00383811Y00882905D01*
X00377811Y00876905D01*
X00377811Y00833905D01*
X00366095Y00822189D01*
X00309905Y00822189D01*
X00298189Y00833905D01*
X00298189Y00834000D01*
X00263811Y00834000D01*
X00263811Y00833905D01*
X00252095Y00822189D01*
X00195905Y00822189D01*
X00191905Y00826189D01*
X00135905Y00826189D01*
X00135000Y00827094D01*
X00135000Y00810811D01*
X00137095Y00810811D01*
X00148811Y00799095D01*
X00148811Y00742905D01*
X00137095Y00731189D01*
X00087000Y00731189D01*
X00087000Y00400811D01*
X00087095Y00400811D01*
X00098811Y00389095D01*
X00098811Y00332905D01*
X00087095Y00321189D01*
X00045000Y00321189D01*
X00045000Y00319953D02*
X00269189Y00319953D01*
X00269189Y00309954D02*
X00045000Y00309954D01*
X00045000Y00299956D02*
X00269189Y00299956D01*
X00269189Y00289957D02*
X00045000Y00289957D01*
X00045000Y00279959D02*
X00269189Y00279959D01*
X00272133Y00269960D02*
X00045000Y00269960D01*
X00045000Y00259962D02*
X00783380Y00259962D01*
X00792131Y00249963D02*
X00648000Y00249963D01*
X00648000Y00239965D02*
X01001000Y00239965D01*
X01001000Y00249963D02*
X00938767Y00249963D01*
X00943527Y00259962D02*
X01001000Y00259962D01*
X01001000Y00269960D02*
X00943527Y00269960D01*
X00943527Y00279959D02*
X01001000Y00279959D01*
X01001000Y00289957D02*
X00943527Y00289957D01*
X00943527Y00299956D02*
X01001000Y00299956D01*
X01001000Y00309954D02*
X00943527Y00309954D01*
X00943527Y00319953D02*
X01001000Y00319953D01*
X01001000Y00329951D02*
X00943527Y00329951D01*
X00943527Y00339950D02*
X01001000Y00339950D01*
X01001000Y00349948D02*
X00943527Y00349948D01*
X00943527Y00359947D02*
X01001000Y00359947D01*
X01001000Y00369945D02*
X00943527Y00369945D01*
X00943527Y00379944D02*
X01001000Y00379944D01*
X01001000Y00389942D02*
X00943527Y00389942D01*
X00940863Y00399941D02*
X01001000Y00399941D01*
X01001000Y00409939D02*
X00922000Y00409939D01*
X00922000Y00419938D02*
X01001000Y00419938D01*
X01001000Y00429937D02*
X00922000Y00429937D01*
X00922000Y00439935D02*
X01001000Y00439935D01*
X01001000Y00449934D02*
X00922000Y00449934D01*
X00922000Y00459932D02*
X01001000Y00459932D01*
X01001000Y00469931D02*
X00922000Y00469931D01*
X00922000Y00479929D02*
X01001000Y00479929D01*
X01001000Y00489928D02*
X00922000Y00489928D01*
X00922000Y00499926D02*
X01001000Y00499926D01*
X01001000Y00509925D02*
X00922000Y00509925D01*
X00922000Y00519923D02*
X01001000Y00519923D01*
X00994274Y00529922D02*
X00922000Y00529922D01*
X00922000Y00539920D02*
X00984472Y00539920D01*
X00983312Y00549919D02*
X00922000Y00549919D01*
X00866000Y00534402D02*
X00866000Y00408992D01*
X00856188Y00408992D01*
X00844472Y00397276D01*
X00844472Y00329527D01*
X00847999Y00326000D01*
X00847810Y00325811D01*
X00795905Y00325811D01*
X00785994Y00315901D01*
X00603992Y00324841D01*
X00603992Y00398812D01*
X00598811Y00403993D01*
X00598811Y00459095D01*
X00587095Y00470811D01*
X00530905Y00470811D01*
X00519189Y00459095D01*
X00519189Y00405190D01*
X00512811Y00398812D01*
X00512811Y00328114D01*
X00348811Y00328827D01*
X00348811Y00329095D01*
X00346906Y00331000D01*
X00353811Y00337905D01*
X00353811Y00338000D01*
X00359570Y00338000D01*
X00369861Y00342263D01*
X00619861Y00592263D01*
X00627737Y00600139D01*
X00632000Y00610430D01*
X00632000Y00651189D01*
X00632095Y00651189D01*
X00643811Y00662905D01*
X00643811Y00719095D01*
X00632095Y00730811D01*
X00585000Y00730811D01*
X00585000Y00760000D01*
X00703402Y00760000D01*
X00680263Y00736861D01*
X00676000Y00726570D01*
X00676000Y00660430D01*
X00680263Y00650139D01*
X00688139Y00642263D01*
X00718139Y00612263D01*
X00728430Y00608000D01*
X00792402Y00608000D01*
X00866000Y00534402D01*
X00866000Y00529922D02*
X00557520Y00529922D01*
X00567518Y00539920D02*
X00860482Y00539920D01*
X00850483Y00549919D02*
X00577517Y00549919D01*
X00587515Y00559917D02*
X00840485Y00559917D01*
X00830486Y00569916D02*
X00597514Y00569916D01*
X00607512Y00579914D02*
X00820488Y00579914D01*
X00810489Y00589913D02*
X00617511Y00589913D01*
X00627509Y00599911D02*
X00800491Y00599911D01*
X00723819Y00609910D02*
X00631784Y00609910D01*
X00632000Y00619908D02*
X00710493Y00619908D01*
X00700495Y00629907D02*
X00632000Y00629907D01*
X00632000Y00639906D02*
X00690496Y00639906D01*
X00680498Y00649904D02*
X00632000Y00649904D01*
X00640809Y00659903D02*
X00676219Y00659903D01*
X00676000Y00669901D02*
X00643811Y00669901D01*
X00643811Y00679900D02*
X00676000Y00679900D01*
X00676000Y00689898D02*
X00643811Y00689898D01*
X00643811Y00699897D02*
X00676000Y00699897D01*
X00676000Y00709895D02*
X00643811Y00709895D01*
X00643012Y00719894D02*
X00676000Y00719894D01*
X00677376Y00729892D02*
X00633014Y00729892D01*
X00585000Y00739891D02*
X00683293Y00739891D01*
X00693291Y00749889D02*
X00585000Y00749889D01*
X00585000Y00759888D02*
X00703290Y00759888D01*
X00738353Y00829877D02*
X00373784Y00829877D01*
X00377811Y00839876D02*
X00728354Y00839876D01*
X00718356Y00849875D02*
X00377811Y00849875D01*
X00377811Y00859873D02*
X00708357Y00859873D01*
X00698359Y00869872D02*
X00569064Y00869872D01*
X00566147Y00869872D02*
X00377811Y00869872D01*
X00380776Y00879870D02*
X00548926Y00879870D01*
X00537428Y00889869D02*
X00383811Y00889869D01*
X00383811Y00899867D02*
X00492227Y00899867D01*
X00484189Y00909866D02*
X00383811Y00909866D01*
X00383811Y00919864D02*
X00484189Y00919864D01*
X00484189Y00929863D02*
X00383811Y00929863D01*
X00383045Y00939861D02*
X00484189Y00939861D01*
X00484189Y00949860D02*
X00373046Y00949860D01*
X00322189Y00959858D02*
X00484189Y00959858D01*
X00489951Y00969857D02*
X00322189Y00969857D01*
X00322189Y00979855D02*
X00714189Y00979855D01*
X00714189Y00969857D02*
X00698049Y00969857D01*
X00719948Y00989854D02*
X00322189Y00989854D01*
X00322189Y00999852D02*
X00763000Y00999852D01*
X00763000Y01009851D02*
X00322189Y01009851D01*
X00322189Y01019849D02*
X00763000Y01019849D01*
X00763000Y01029848D02*
X00470754Y01029848D01*
X00397246Y01029848D02*
X00322189Y01029848D01*
X00322189Y01039846D02*
X00394189Y01039846D01*
X00394189Y01049845D02*
X00322189Y01049845D01*
X00322189Y01059844D02*
X00394189Y01059844D01*
X00394189Y01069842D02*
X00322189Y01069842D01*
X00322189Y01079841D02*
X00394189Y01079841D01*
X00460730Y01189824D02*
X00624918Y01189824D01*
X00620726Y01219820D02*
X00796008Y01219820D01*
X00796008Y01209821D02*
X00463811Y01209821D01*
X00463811Y01199823D02*
X00796008Y01199823D01*
X00796008Y01189824D02*
X00693082Y01189824D01*
X00698811Y01179826D02*
X00796008Y01179826D01*
X00796008Y01169827D02*
X00698811Y01169827D01*
X00698811Y01159829D02*
X00796008Y01159829D01*
X00796008Y01149830D02*
X00698811Y01149830D01*
X00698811Y01139832D02*
X00797028Y01139832D01*
X00802015Y01229818D02*
X00623811Y01229818D01*
X00623811Y01239817D02*
X01119189Y01239817D01*
X01119189Y01249815D02*
X00623811Y01249815D01*
X00629297Y01259814D02*
X01119189Y01259814D01*
X01119189Y01269813D02*
X00638185Y01269813D01*
X00647409Y01279811D02*
X01119189Y01279811D01*
X01119903Y01289810D02*
X00651743Y01289810D01*
X00663612Y01299808D02*
X01129902Y01299808D01*
X01122015Y01229818D02*
X01115985Y01229818D01*
X01188098Y01299808D02*
X01322000Y01299808D01*
X01322000Y01289810D02*
X01198097Y01289810D01*
X01198811Y01279811D02*
X01322000Y01279811D01*
X01322000Y01269813D02*
X01198811Y01269813D01*
X01198811Y01259814D02*
X01322000Y01259814D01*
X01322000Y01249815D02*
X01198811Y01249815D01*
X01198811Y01239817D02*
X01322000Y01239817D01*
X01322000Y01229818D02*
X01275985Y01229818D01*
X01281992Y01219820D02*
X01322000Y01219820D01*
X01322000Y01209821D02*
X01281992Y01209821D01*
X01281992Y01199823D02*
X01322000Y01199823D01*
X01322000Y01189824D02*
X01281992Y01189824D01*
X01281992Y01179826D02*
X01322000Y01179826D01*
X01322000Y01169827D02*
X01281992Y01169827D01*
X01281992Y01159829D02*
X01322000Y01159829D01*
X01322000Y01149830D02*
X01281992Y01149830D01*
X01273636Y01139832D02*
X01322000Y01139832D01*
X01322000Y01129833D02*
X01257431Y01129833D01*
X01247433Y01119835D02*
X01322000Y01119835D01*
X01322000Y01109836D02*
X01237434Y01109836D01*
X01224006Y01099838D02*
X01322000Y01099838D01*
X01322000Y01089839D02*
X01199759Y01089839D01*
X01209757Y01079841D02*
X01322000Y01079841D01*
X01322000Y01069842D02*
X01219756Y01069842D01*
X01229754Y01059844D02*
X01322000Y01059844D01*
X01322000Y01049845D02*
X01235643Y01049845D01*
X01237000Y01039846D02*
X01322000Y01039846D01*
X01322000Y01029848D02*
X01278058Y01029848D01*
X01288057Y01019849D02*
X01322000Y01019849D01*
X01322000Y01009851D02*
X01288811Y01009851D01*
X01288811Y00999852D02*
X01322000Y00999852D01*
X01322000Y00989854D02*
X01288811Y00989854D01*
X01288811Y00979855D02*
X01322000Y00979855D01*
X01322000Y00969857D02*
X01289572Y00969857D01*
X01298567Y00959858D02*
X01322000Y00959858D01*
X01322000Y00949860D02*
X01302000Y00949860D01*
X01302000Y00939861D02*
X01322000Y00939861D01*
X01322000Y00929863D02*
X01302000Y00929863D01*
X01302000Y00919864D02*
X01322000Y00919864D01*
X01322000Y00909866D02*
X01302000Y00909866D01*
X01302000Y00899867D02*
X01322000Y00899867D01*
X01322000Y00889869D02*
X01302000Y00889869D01*
X01302000Y00879870D02*
X01322000Y00879870D01*
X01322000Y00869872D02*
X01302000Y00869872D01*
X01302000Y00859873D02*
X01322000Y00859873D01*
X01322000Y00849875D02*
X01302000Y00849875D01*
X01302000Y00839876D02*
X01322000Y00839876D01*
X01322000Y00829877D02*
X01302000Y00829877D01*
X01302000Y00819879D02*
X01322000Y00819879D01*
X01322000Y00809880D02*
X01302000Y00809880D01*
X01302000Y00799882D02*
X01322000Y00799882D01*
X01322000Y00789883D02*
X01302000Y00789883D01*
X01302000Y00779885D02*
X01322000Y00779885D01*
X01322000Y00769886D02*
X01302000Y00769886D01*
X01302000Y00759888D02*
X01322000Y00759888D01*
X01322000Y00749889D02*
X01302000Y00749889D01*
X01302000Y00739891D02*
X01322000Y00739891D01*
X01322000Y00729892D02*
X01302000Y00729892D01*
X01302000Y00719894D02*
X01322000Y00719894D01*
X01322000Y00709895D02*
X01302000Y00709895D01*
X01302000Y00699897D02*
X01322000Y00699897D01*
X01322000Y00689898D02*
X01302000Y00689898D01*
X01302000Y00679900D02*
X01322000Y00679900D01*
X01322000Y00669901D02*
X01302000Y00669901D01*
X01302000Y00659903D02*
X01322000Y00659903D01*
X01322000Y00649904D02*
X01302000Y00649904D01*
X01302000Y00639906D02*
X01322000Y00639906D01*
X01322000Y00629907D02*
X01302000Y00629907D01*
X01302000Y00619908D02*
X01322000Y00619908D01*
X01322000Y00609910D02*
X01302000Y00609910D01*
X01302000Y00599911D02*
X01322000Y00599911D01*
X01322000Y00589913D02*
X01302000Y00589913D01*
X01302000Y00579914D02*
X01322000Y00579914D01*
X01322000Y00569916D02*
X01302000Y00569916D01*
X01301787Y00559917D02*
X01322000Y00559917D01*
X01322000Y00549919D02*
X01297517Y00549919D01*
X01284205Y00539920D02*
X01322000Y00539920D01*
X01322000Y00529922D02*
X01264433Y00529922D01*
X01264433Y00519923D02*
X01322000Y00519923D01*
X01322000Y00509925D02*
X01264433Y00509925D01*
X01264433Y00499926D02*
X01322000Y00499926D01*
X01322000Y00489928D02*
X01264433Y00489928D01*
X01264433Y00479929D02*
X01322000Y00479929D01*
X01322000Y00469931D02*
X01264433Y00469931D01*
X01264433Y00459932D02*
X01322000Y00459932D01*
X01322000Y00449934D02*
X01264433Y00449934D01*
X01264433Y00439935D02*
X01322000Y00439935D01*
X01322000Y00429937D02*
X01264433Y00429937D01*
X01264433Y00419938D02*
X01322000Y00419938D01*
X01322000Y00409939D02*
X01264433Y00409939D01*
X01262288Y00399941D02*
X01322000Y00399941D01*
X01322000Y00389942D02*
X01057000Y00389942D01*
X01057000Y00379944D02*
X01322000Y00379944D01*
X01322000Y00369945D02*
X01057000Y00369945D01*
X01057000Y00359947D02*
X01322000Y00359947D01*
X01322000Y00349948D02*
X01254399Y00349948D01*
X01252717Y00351630D02*
X01085283Y00351630D01*
X01073567Y00339914D01*
X01073567Y00207086D01*
X01085283Y00195370D01*
X01172717Y00195370D01*
X01252717Y00195370D01*
X01264433Y00207086D01*
X01264433Y00339914D01*
X01252717Y00351630D01*
X01264397Y00339950D02*
X01322000Y00339950D01*
X01322000Y00329951D02*
X01264433Y00329951D01*
X01264433Y00319953D02*
X01322000Y00319953D01*
X01322000Y00309954D02*
X01264433Y00309954D01*
X01264433Y00299956D02*
X01322000Y00299956D01*
X01322000Y00289957D02*
X01264433Y00289957D01*
X01264433Y00279959D02*
X01322000Y00279959D01*
X01322000Y00269960D02*
X01264433Y00269960D01*
X01264433Y00259962D02*
X01322000Y00259962D01*
X01322000Y00249963D02*
X01264433Y00249963D01*
X01264433Y00239965D02*
X01322000Y00239965D01*
X01322000Y00229966D02*
X01264433Y00229966D01*
X01264433Y00219968D02*
X01322000Y00219968D01*
X01322000Y00209969D02*
X01264433Y00209969D01*
X01257318Y00199970D02*
X01322000Y00199970D01*
X01322000Y00189972D02*
X01064626Y00189972D01*
X01057000Y00199970D02*
X01080682Y00199970D01*
X01073567Y00209969D02*
X01057000Y00209969D01*
X01057000Y00219968D02*
X01073567Y00219968D01*
X01073567Y00229966D02*
X01057000Y00229966D01*
X01057000Y00239965D02*
X01073567Y00239965D01*
X01073567Y00249963D02*
X01057000Y00249963D01*
X01057000Y00259962D02*
X01073567Y00259962D01*
X01073567Y00269960D02*
X01057000Y00269960D01*
X01057000Y00279959D02*
X01073567Y00279959D01*
X01073567Y00289957D02*
X01057000Y00289957D01*
X01057000Y00299956D02*
X01073567Y00299956D01*
X01073567Y00309954D02*
X01057000Y00309954D01*
X01057000Y00319953D02*
X01073567Y00319953D01*
X01073567Y00329951D02*
X01057000Y00329951D01*
X01057000Y00339950D02*
X01073603Y00339950D01*
X01083601Y00349948D02*
X01057000Y00349948D01*
X01057000Y00399941D02*
X01075712Y00399941D01*
X01073567Y00409939D02*
X01057000Y00409939D01*
X01057000Y00419938D02*
X01073567Y00419938D01*
X01073567Y00429937D02*
X01057000Y00429937D01*
X01057000Y00439935D02*
X01073567Y00439935D01*
X01073567Y00449934D02*
X01057000Y00449934D01*
X01057000Y00459932D02*
X01073567Y00459932D01*
X01073567Y00469931D02*
X01057000Y00469931D01*
X01057000Y00479929D02*
X01073567Y00479929D01*
X01073567Y00489928D02*
X01057000Y00489928D01*
X01057000Y00499926D02*
X01073567Y00499926D01*
X01073567Y00509925D02*
X01057000Y00509925D01*
X01057000Y00519923D02*
X01073567Y00519923D01*
X01082799Y00683005D02*
X01071812Y00693992D01*
X01025179Y00693992D01*
X01018728Y00700443D01*
X01009172Y00704401D01*
X00998527Y00704401D01*
X00998527Y00712276D01*
X00986812Y00723992D01*
X00943007Y00723992D01*
X00917262Y00749737D01*
X00906971Y00754000D01*
X00894906Y00754000D01*
X00898811Y00757905D01*
X00898811Y00795000D01*
X00948230Y00795000D01*
X00999272Y00743958D01*
X01008828Y00740000D01*
X01104189Y00740000D01*
X01104189Y00737905D01*
X01115905Y00726189D01*
X01172095Y00726189D01*
X01183811Y00737905D01*
X01183811Y00794095D01*
X01172095Y00805811D01*
X01115905Y00805811D01*
X01104189Y00794095D01*
X01104189Y00792000D01*
X01078811Y00792000D01*
X01078811Y00834095D01*
X01067095Y00845811D01*
X01035958Y00845811D01*
X01013728Y00868042D01*
X01004172Y00872000D01*
X00916769Y00872000D01*
X00963728Y00918958D01*
X00971042Y00926272D01*
X00974657Y00935000D01*
X00984189Y00935000D01*
X00984189Y00932905D01*
X00995905Y00921189D01*
X01039189Y00921189D01*
X01039189Y00897905D01*
X01050905Y00886189D01*
X01107095Y00886189D01*
X01118811Y00897905D01*
X01118811Y00954095D01*
X01107095Y00965811D01*
X01107000Y00965811D01*
X01107000Y00981189D01*
X01107095Y00981189D01*
X01118811Y00992905D01*
X01118811Y01049095D01*
X01107095Y01060811D01*
X01050905Y01060811D01*
X01039189Y01049095D01*
X01039189Y01000811D01*
X01000580Y01000811D01*
X01003728Y01003958D01*
X01011042Y01011272D01*
X01015000Y01020828D01*
X01015000Y01035343D01*
X01023728Y01038958D01*
X01049769Y01065000D01*
X01119189Y01065000D01*
X01119189Y01062905D01*
X01130905Y01051189D01*
X01159213Y01051189D01*
X01181000Y01029402D01*
X01181000Y00950430D01*
X01185263Y00940139D01*
X01221000Y00904402D01*
X01221000Y00689527D01*
X01216961Y00685488D01*
X01085283Y00685488D01*
X01082799Y00683005D01*
X01075906Y00689898D02*
X01221000Y00689898D01*
X01221000Y00699897D02*
X01019274Y00699897D01*
X00998527Y00709895D02*
X01221000Y00709895D01*
X01221000Y00719894D02*
X00990910Y00719894D01*
X00993341Y00749889D02*
X00916895Y00749889D01*
X00927109Y00739891D02*
X01104189Y00739891D01*
X01112201Y00729892D02*
X00937107Y00729892D01*
X00898811Y00759888D02*
X00983343Y00759888D01*
X00973344Y00769886D02*
X00898811Y00769886D01*
X00898811Y00779885D02*
X00963346Y00779885D01*
X00953347Y00789883D02*
X00898811Y00789883D01*
X00924639Y00879870D02*
X01221000Y00879870D01*
X01221000Y00869872D02*
X01009310Y00869872D01*
X01021896Y00859873D02*
X01221000Y00859873D01*
X01221000Y00849875D02*
X01031895Y00849875D01*
X01047225Y00889869D02*
X00934638Y00889869D01*
X00944636Y00899867D02*
X01039189Y00899867D01*
X01039189Y00909866D02*
X00954635Y00909866D01*
X00964634Y00919864D02*
X01039189Y00919864D01*
X01073030Y00839876D02*
X01221000Y00839876D01*
X01221000Y00829877D02*
X01078811Y00829877D01*
X01078811Y00819879D02*
X01221000Y00819879D01*
X01221000Y00809880D02*
X01078811Y00809880D01*
X01078811Y00799882D02*
X01109976Y00799882D01*
X01110775Y00889869D02*
X01221000Y00889869D01*
X01221000Y00899867D02*
X01118811Y00899867D01*
X01118811Y00909866D02*
X01215536Y00909866D01*
X01205538Y00919864D02*
X01118811Y00919864D01*
X01118811Y00929863D02*
X01195539Y00929863D01*
X01185541Y00939861D02*
X01118811Y00939861D01*
X01118811Y00949860D02*
X01181236Y00949860D01*
X01181000Y00959858D02*
X01113048Y00959858D01*
X01107000Y00969857D02*
X01181000Y00969857D01*
X01181000Y00979855D02*
X01107000Y00979855D01*
X01115760Y00989854D02*
X01181000Y00989854D01*
X01181000Y00999852D02*
X01118811Y00999852D01*
X01118811Y01009851D02*
X01181000Y01009851D01*
X01181000Y01019849D02*
X01118811Y01019849D01*
X01118811Y01029848D02*
X01180554Y01029848D01*
X01170556Y01039846D02*
X01118811Y01039846D01*
X01118061Y01049845D02*
X01160557Y01049845D01*
X01122250Y01059844D02*
X01108063Y01059844D01*
X01049937Y01059844D02*
X01044613Y01059844D01*
X01039939Y01049845D02*
X01034614Y01049845D01*
X01039189Y01039846D02*
X01024616Y01039846D01*
X01015000Y01029848D02*
X01039189Y01029848D01*
X01039189Y01019849D02*
X01014594Y01019849D01*
X01009620Y01009851D02*
X01039189Y01009851D01*
X00987231Y00929863D02*
X00972529Y00929863D01*
X00962015Y01229818D02*
X00955985Y01229818D01*
X00748352Y00819879D02*
X00135000Y00819879D01*
X00138026Y00809880D02*
X00548711Y00809880D01*
X00536608Y00799882D02*
X00148024Y00799882D01*
X00148811Y00789883D02*
X00533000Y00789883D01*
X00533000Y00779885D02*
X00148811Y00779885D01*
X00148811Y00769886D02*
X00533000Y00769886D01*
X00533000Y00759888D02*
X00148811Y00759888D01*
X00148811Y00749889D02*
X00533000Y00749889D01*
X00533000Y00739891D02*
X00145797Y00739891D01*
X00087000Y00729892D02*
X00533000Y00729892D01*
X00533000Y00719894D02*
X00087000Y00719894D01*
X00087000Y00709895D02*
X00359989Y00709895D01*
X00354189Y00699897D02*
X00087000Y00699897D01*
X00087000Y00689898D02*
X00354189Y00689898D01*
X00354189Y00679900D02*
X00087000Y00679900D01*
X00087000Y00669901D02*
X00349332Y00669901D01*
X00388565Y00629907D02*
X00533000Y00629907D01*
X00533000Y00639906D02*
X00425812Y00639906D01*
X00433811Y00649904D02*
X00533000Y00649904D01*
X00533000Y00659903D02*
X00433811Y00659903D01*
X00433811Y00669901D02*
X00533000Y00669901D01*
X00533000Y00679900D02*
X00433811Y00679900D01*
X00433811Y00689898D02*
X00533000Y00689898D01*
X00533000Y00699897D02*
X00433811Y00699897D01*
X00428011Y00709895D02*
X00533000Y00709895D01*
X00531139Y00619908D02*
X00381992Y00619908D01*
X00381992Y00609910D02*
X00521141Y00609910D01*
X00511142Y00599911D02*
X00381992Y00599911D01*
X00381992Y00589913D02*
X00501143Y00589913D01*
X00491145Y00579914D02*
X00381992Y00579914D01*
X00380888Y00569916D02*
X00481146Y00569916D01*
X00471148Y00559917D02*
X00381992Y00559917D01*
X00381992Y00549919D02*
X00461149Y00549919D01*
X00451151Y00539920D02*
X00381992Y00539920D01*
X00381992Y00529922D02*
X00441152Y00529922D01*
X00431154Y00519923D02*
X00381992Y00519923D01*
X00381992Y00509925D02*
X00421155Y00509925D01*
X00411157Y00499926D02*
X00381992Y00499926D01*
X00378732Y00489928D02*
X00401158Y00489928D01*
X00391160Y00479929D02*
X00352977Y00479929D01*
X00350844Y00419938D02*
X00368340Y00419938D01*
X00358342Y00409939D02*
X00087000Y00409939D01*
X00087000Y00419938D02*
X00277156Y00419938D01*
X00274189Y00429937D02*
X00087000Y00429937D01*
X00087000Y00439935D02*
X00274189Y00439935D01*
X00274189Y00449934D02*
X00087000Y00449934D01*
X00087000Y00459932D02*
X00274189Y00459932D01*
X00274189Y00469931D02*
X00087000Y00469931D01*
X00087000Y00479929D02*
X00275023Y00479929D01*
X00285021Y00489928D02*
X00087000Y00489928D01*
X00087000Y00499926D02*
X00290811Y00499926D01*
X00290811Y00509925D02*
X00087000Y00509925D01*
X00087000Y00519923D02*
X00290811Y00519923D01*
X00290811Y00529922D02*
X00087000Y00529922D01*
X00087000Y00539920D02*
X00290811Y00539920D01*
X00290811Y00549919D02*
X00087000Y00549919D01*
X00087000Y00559917D02*
X00290811Y00559917D01*
X00291915Y00569916D02*
X00087000Y00569916D01*
X00087000Y00579914D02*
X00290811Y00579914D01*
X00290811Y00589913D02*
X00087000Y00589913D01*
X00087000Y00599911D02*
X00290811Y00599911D01*
X00290811Y00609910D02*
X00087000Y00609910D01*
X00087000Y00619908D02*
X00290811Y00619908D01*
X00290811Y00629907D02*
X00087000Y00629907D01*
X00087000Y00639906D02*
X00290811Y00639906D01*
X00290811Y00649904D02*
X00087000Y00649904D01*
X00087000Y00659903D02*
X00296902Y00659903D01*
X00302216Y00829877D02*
X00259784Y00829877D01*
X00083000Y01049845D02*
X00045000Y01049845D01*
X00045000Y01059844D02*
X00083000Y01059844D01*
X00083000Y01069842D02*
X00045000Y01069842D01*
X00045000Y01079841D02*
X00083000Y01079841D01*
X00083000Y01089839D02*
X00045000Y01089839D01*
X00045000Y01099838D02*
X00083000Y01099838D01*
X00083000Y01109836D02*
X00045000Y01109836D01*
X00045000Y01119835D02*
X00083000Y01119835D01*
X00083000Y01129833D02*
X00045000Y01129833D01*
X00045000Y01139832D02*
X00083000Y01139832D01*
X00083000Y01149830D02*
X00045000Y01149830D01*
X00045000Y01159829D02*
X00083000Y01159829D01*
X00086585Y01169827D02*
X00045000Y01169827D01*
X00045000Y01179826D02*
X00098580Y01179826D01*
X00045000Y01189824D02*
X00269026Y01189824D01*
X00255579Y01199823D02*
X00045000Y01199823D01*
X00045000Y01209821D02*
X00245581Y01209821D01*
X00235582Y01219820D02*
X00045000Y01219820D01*
X00045000Y01229818D02*
X00225584Y01229818D01*
X00215585Y01239817D02*
X00045000Y01239817D01*
X00045000Y01249815D02*
X00205586Y01249815D01*
X00195588Y01259814D02*
X00045000Y01259814D01*
X00045000Y01269813D02*
X00164383Y01269813D01*
X00159472Y01279811D02*
X00045000Y01279811D01*
X00045000Y01289810D02*
X00159472Y01289810D01*
X00159472Y01299808D02*
X00045000Y01299808D01*
X00045000Y01309807D02*
X00159472Y01309807D01*
X00159472Y01319805D02*
X00045000Y01319805D01*
X00045000Y01329804D02*
X00159472Y01329804D01*
X00159472Y01339802D02*
X00045000Y01339802D01*
X00045000Y01349801D02*
X00166800Y01349801D01*
X00251200Y01349801D02*
X00251800Y01349801D01*
X00336200Y01349801D02*
X00411800Y01349801D01*
X00409472Y01339802D02*
X00343527Y01339802D01*
X00343527Y01329804D02*
X00409472Y01329804D01*
X00409472Y01319805D02*
X00343527Y01319805D01*
X00343527Y01309807D02*
X00409472Y01309807D01*
X00409472Y01299808D02*
X00343527Y01299808D01*
X00343527Y01289810D02*
X00344903Y01289810D01*
X00403097Y01289810D02*
X00409472Y01289810D01*
X00463811Y01219820D02*
X00482274Y01219820D01*
X00508527Y01299808D02*
X00589191Y01299808D01*
X00580811Y01309807D02*
X00508527Y01309807D01*
X00508527Y01319805D02*
X00580811Y01319805D01*
X00580811Y01329804D02*
X00508527Y01329804D01*
X00508527Y01339802D02*
X00580811Y01339802D01*
X00580811Y01349801D02*
X00506200Y01349801D01*
X00548097Y01289810D02*
X00554903Y01289810D01*
X00580811Y01359799D02*
X00045000Y01359799D01*
X00045000Y01369798D02*
X00580811Y01369798D01*
X00580811Y01379796D02*
X00045000Y01379796D01*
X00045000Y01389795D02*
X00586794Y01389795D01*
X00570905Y01436189D02*
X00627095Y01436189D01*
X00638811Y01447905D01*
X00638811Y01504095D01*
X00635953Y01506953D01*
X00642189Y01513188D01*
X00642189Y01588812D01*
X00630473Y01600527D01*
X00562724Y01600527D01*
X00551008Y01588812D01*
X00551008Y01513188D01*
X00559645Y01504551D01*
X00559189Y01504095D01*
X00559189Y01504000D01*
X00488811Y01504000D01*
X00488811Y01504095D01*
X00477095Y01515811D01*
X00422189Y01515811D01*
X00422189Y01588812D01*
X00410473Y01600527D01*
X00342724Y01600527D01*
X00331008Y01588812D01*
X00331008Y01513188D01*
X00337145Y01507051D01*
X00334189Y01504095D01*
X00334189Y01447905D01*
X00345905Y01436189D01*
X00402095Y01436189D01*
X00411500Y01445594D01*
X00420905Y01436189D01*
X00477095Y01436189D01*
X00488811Y01447905D01*
X00488811Y01448000D01*
X00559189Y01448000D01*
X00559189Y01447905D01*
X00570905Y01436189D01*
X00567306Y01439787D02*
X00480694Y01439787D01*
X00483129Y01509777D02*
X00554419Y01509777D01*
X00551008Y01519776D02*
X00422189Y01519776D01*
X00422189Y01529774D02*
X00551008Y01529774D01*
X00551008Y01539773D02*
X00422189Y01539773D01*
X00422189Y01549771D02*
X00551008Y01549771D01*
X00551008Y01559770D02*
X00422189Y01559770D01*
X00422189Y01569768D02*
X00551008Y01569768D01*
X00551008Y01579767D02*
X00422189Y01579767D01*
X00421235Y01589765D02*
X00551961Y01589765D01*
X00561960Y01599764D02*
X00411237Y01599764D01*
X00341960Y01599764D02*
X00045000Y01599764D01*
X00045000Y01609762D02*
X01322000Y01609762D01*
X01322000Y01599764D02*
X00631237Y01599764D01*
X00641235Y01589765D02*
X01322000Y01589765D01*
X01322000Y01579767D02*
X00642189Y01579767D01*
X00642189Y01569768D02*
X01322000Y01569768D01*
X01322000Y01559770D02*
X00642189Y01559770D01*
X00642189Y01549771D02*
X01322000Y01549771D01*
X01322000Y01539773D02*
X00642189Y01539773D01*
X00642189Y01529774D02*
X01322000Y01529774D01*
X01322000Y01519776D02*
X00642189Y01519776D01*
X00638778Y01509777D02*
X01322000Y01509777D01*
X01322000Y01499779D02*
X00638811Y01499779D01*
X00638811Y01489780D02*
X01322000Y01489780D01*
X01322000Y01479781D02*
X00638811Y01479781D01*
X00638811Y01469783D02*
X01322000Y01469783D01*
X01322000Y01459784D02*
X00638811Y01459784D01*
X00638811Y01449786D02*
X01322000Y01449786D01*
X01322000Y01439787D02*
X00630694Y01439787D01*
X00666009Y01389795D02*
X01322000Y01389795D01*
X01322000Y01399793D02*
X00045000Y01399793D01*
X00045000Y01409792D02*
X01322000Y01409792D01*
X01322000Y01419790D02*
X00045000Y01419790D01*
X00045000Y01429789D02*
X01322000Y01429789D01*
X01322000Y01379796D02*
X00671992Y01379796D01*
X00671992Y01369798D02*
X01322000Y01369798D01*
X01322000Y01359799D02*
X00671992Y01359799D01*
X00671992Y01349801D02*
X01322000Y01349801D01*
X01322000Y01339802D02*
X00671992Y01339802D01*
X00671992Y01329804D02*
X01322000Y01329804D01*
X01322000Y01319805D02*
X00671992Y01319805D01*
X00671992Y01309807D02*
X01322000Y01309807D01*
X01322000Y01619761D02*
X00045000Y01619761D01*
X00045000Y01629759D02*
X01322000Y01629759D01*
X01322000Y01639758D02*
X00045000Y01639758D01*
X00045000Y01649756D02*
X01322000Y01649756D01*
X01322000Y01659755D02*
X00045000Y01659755D01*
X00045000Y01669753D02*
X01322000Y01669753D01*
X01322000Y01679752D02*
X00045000Y01679752D01*
X00045000Y01689750D02*
X01322000Y01689750D01*
X01322000Y01699749D02*
X00880655Y01699749D01*
X00877095Y01696189D02*
X00888811Y01707905D01*
X00888811Y01764095D01*
X00877095Y01775811D01*
X00859031Y01775811D01*
X00856161Y01777000D01*
X00295906Y01777000D01*
X00292095Y01780811D01*
X00235905Y01780811D01*
X00224189Y01769095D01*
X00224189Y01712905D01*
X00235905Y01701189D01*
X00292095Y01701189D01*
X00295906Y01705000D01*
X00812094Y01705000D01*
X00820905Y01696189D01*
X00877095Y01696189D01*
X00888811Y01709748D02*
X01322000Y01709748D01*
X01322000Y01719746D02*
X00888811Y01719746D01*
X00888811Y01729745D02*
X01322000Y01729745D01*
X01322000Y01739743D02*
X00888811Y01739743D01*
X00888811Y01749742D02*
X01322000Y01749742D01*
X01322000Y01759740D02*
X00888811Y01759740D01*
X00883167Y01769739D02*
X01322000Y01769739D01*
X01322000Y01779737D02*
X00293169Y01779737D01*
X00234831Y01779737D02*
X00045000Y01779737D01*
X00045000Y01769739D02*
X00224832Y01769739D01*
X00224189Y01759740D02*
X00045000Y01759740D01*
X00045000Y01749742D02*
X00224189Y01749742D01*
X00224189Y01739743D02*
X00045000Y01739743D01*
X00045000Y01729745D02*
X00224189Y01729745D01*
X00224189Y01719746D02*
X00045000Y01719746D01*
X00045000Y01709748D02*
X00227346Y01709748D01*
X00331961Y01589765D02*
X00045000Y01589765D01*
X00045000Y01579767D02*
X00331008Y01579767D01*
X00331008Y01569768D02*
X00045000Y01569768D01*
X00045000Y01559770D02*
X00331008Y01559770D01*
X00331008Y01549771D02*
X00045000Y01549771D01*
X00045000Y01539773D02*
X00331008Y01539773D01*
X00331008Y01529774D02*
X00045000Y01529774D01*
X00045000Y01519776D02*
X00331008Y01519776D01*
X00334419Y01509777D02*
X00045000Y01509777D01*
X00045000Y01499779D02*
X00334189Y01499779D01*
X00334189Y01489780D02*
X00045000Y01489780D01*
X00045000Y01479781D02*
X00334189Y01479781D01*
X00334189Y01469783D02*
X00045000Y01469783D01*
X00045000Y01459784D02*
X00334189Y01459784D01*
X00334189Y01449786D02*
X00045000Y01449786D01*
X00045000Y01439787D02*
X00342306Y01439787D01*
X00405694Y01439787D02*
X00417306Y01439787D01*
X00558049Y00969857D02*
X00629951Y00969857D01*
X00624189Y00959858D02*
X00563811Y00959858D01*
X00563811Y00949860D02*
X00624189Y00949860D01*
X00624189Y00939861D02*
X00563811Y00939861D01*
X00570681Y00929863D02*
X00624189Y00929863D01*
X00547521Y00519923D02*
X00866000Y00519923D01*
X00866000Y00509925D02*
X00537523Y00509925D01*
X00527524Y00499926D02*
X00866000Y00499926D01*
X00866000Y00489928D02*
X00517526Y00489928D01*
X00507527Y00479929D02*
X00866000Y00479929D01*
X00866000Y00469931D02*
X00587976Y00469931D01*
X00597974Y00459932D02*
X00866000Y00459932D01*
X00866000Y00449934D02*
X00598811Y00449934D01*
X00598811Y00439935D02*
X00866000Y00439935D01*
X00866000Y00429937D02*
X00598811Y00429937D01*
X00598811Y00419938D02*
X00866000Y00419938D01*
X00866000Y00409939D02*
X00598811Y00409939D01*
X00602863Y00399941D02*
X00847137Y00399941D01*
X00844472Y00389942D02*
X00603992Y00389942D01*
X00603992Y00379944D02*
X00844472Y00379944D01*
X00844472Y00369945D02*
X00603992Y00369945D01*
X00603992Y00359947D02*
X00844472Y00359947D01*
X00844472Y00349948D02*
X00603992Y00349948D01*
X00603992Y00339950D02*
X00844472Y00339950D01*
X00844472Y00329951D02*
X00603992Y00329951D01*
X00579838Y00269960D02*
X00345866Y00269960D01*
X00347955Y00329951D02*
X00512811Y00329951D01*
X00512811Y00339950D02*
X00364277Y00339950D01*
X00377546Y00349948D02*
X00512811Y00349948D01*
X00512811Y00359947D02*
X00387545Y00359947D01*
X00397543Y00369945D02*
X00512811Y00369945D01*
X00512811Y00379944D02*
X00407542Y00379944D01*
X00417540Y00389942D02*
X00512811Y00389942D01*
X00513940Y00399941D02*
X00427539Y00399941D01*
X00437537Y00409939D02*
X00519189Y00409939D01*
X00519189Y00419938D02*
X00447536Y00419938D01*
X00457534Y00429937D02*
X00519189Y00429937D01*
X00519189Y00439935D02*
X00467533Y00439935D01*
X00477531Y00449934D02*
X00519189Y00449934D01*
X00520026Y00459932D02*
X00487530Y00459932D01*
X00497529Y00469931D02*
X00530024Y00469931D01*
X00648000Y00229966D02*
X01001000Y00229966D01*
X01001000Y00219968D02*
X00648000Y00219968D01*
X00648000Y00209969D02*
X01001000Y00209969D01*
X01001000Y00199970D02*
X00648000Y00199970D01*
X00648000Y00189972D02*
X01001000Y00189972D01*
X01001189Y00179973D02*
X00648000Y00179973D01*
X00648000Y00169975D02*
X01005427Y00169975D01*
X01015426Y00159976D02*
X00648000Y00159976D01*
X00648000Y00149978D02*
X01025424Y00149978D01*
X01035423Y00139979D02*
X00648000Y00139979D01*
X00648000Y00129981D02*
X01045421Y00129981D01*
X01055420Y00119982D02*
X00648000Y00119982D01*
X00648000Y00109984D02*
X01065418Y00109984D01*
X01073567Y00099985D02*
X00648000Y00099985D01*
X00648000Y00089987D02*
X01073567Y00089987D01*
X01073567Y00079988D02*
X00648000Y00079988D01*
X00648000Y00069990D02*
X01076805Y00069990D01*
X01094621Y00159976D02*
X01322000Y00159976D01*
X01322000Y00149978D02*
X01259369Y00149978D01*
X01264433Y00139979D02*
X01322000Y00139979D01*
X01322000Y00129981D02*
X01264433Y00129981D01*
X01264433Y00119982D02*
X01322000Y00119982D01*
X01322000Y00109984D02*
X01264433Y00109984D01*
X01264433Y00099985D02*
X01322000Y00099985D01*
X01322000Y00089987D02*
X01264433Y00089987D01*
X01264433Y00079988D02*
X01322000Y00079988D01*
X01322000Y00069990D02*
X01261195Y00069990D01*
X01322000Y00059991D02*
X00648000Y00059991D01*
X00648000Y00049993D02*
X01322000Y00049993D01*
X01322000Y00169975D02*
X01084623Y00169975D01*
X01074624Y00179973D02*
X01322000Y00179973D01*
X01221000Y00729892D02*
X01175798Y00729892D01*
X01183811Y00739891D02*
X01221000Y00739891D01*
X01221000Y00749889D02*
X01183811Y00749889D01*
X01183811Y00759888D02*
X01221000Y00759888D01*
X01221000Y00769886D02*
X01183811Y00769886D01*
X01183811Y00779885D02*
X01221000Y00779885D01*
X01221000Y00789883D02*
X01183811Y00789883D01*
X01178024Y00799882D02*
X01221000Y00799882D01*
X00790047Y00319953D02*
X00703504Y00319953D01*
X00348343Y00399941D02*
X00347965Y00399941D01*
X00280035Y00399941D02*
X00087965Y00399941D01*
X00097964Y00389942D02*
X00274189Y00389942D01*
X00274189Y00379944D02*
X00098811Y00379944D01*
X00098811Y00369945D02*
X00274189Y00369945D01*
X00274189Y00359947D02*
X00098811Y00359947D01*
X00098811Y00349948D02*
X00274189Y00349948D01*
X00274189Y00339950D02*
X00098811Y00339950D01*
X00095858Y00329951D02*
X00270045Y00329951D01*
X00045000Y01699749D02*
X00817345Y01699749D01*
X01322000Y01789736D02*
X00045000Y01789736D01*
X00045000Y01799734D02*
X01322000Y01799734D01*
X01322000Y01809733D02*
X00045000Y01809733D01*
X00045000Y01819731D02*
X01322000Y01819731D01*
X01322000Y01829730D02*
X00045000Y01829730D01*
X00045000Y01839728D02*
X01322000Y01839728D01*
X01322000Y01849727D02*
X00045000Y01849727D01*
X00045000Y01859725D02*
X01322000Y01859725D01*
X01322000Y01869724D02*
X00045000Y01869724D01*
X00045000Y01879722D02*
X01322000Y01879722D01*
X01322000Y01889721D02*
X00045000Y01889721D01*
X00045000Y01899719D02*
X01322000Y01899719D01*
X01322000Y01909718D02*
X00045000Y01909718D01*
X00045000Y01919717D02*
X01322000Y01919717D01*
X01322000Y01929715D02*
X00044642Y01929715D01*
D18*
X00109000Y01156000D02*
X00659000Y01156000D01*
X00754000Y00956000D02*
X00754000Y00936000D01*
X00804000Y00886000D01*
X00894000Y00886000D01*
X00949000Y00941000D01*
X00949000Y00956000D01*
X00954000Y00961000D01*
X01024000Y00961000D01*
X00969000Y01006000D02*
X00989000Y01026000D01*
X00989000Y01056000D01*
X00994000Y01061000D01*
X01009000Y01061000D01*
X01039000Y01091000D01*
X01159000Y01091000D01*
X00999000Y00846000D02*
X01039000Y00806000D01*
X01014000Y00766000D02*
X00959000Y00821000D01*
X00784000Y00821000D01*
X00709000Y00896000D01*
X00570000Y00896000D01*
X00524000Y00936000D01*
X00559000Y00786000D02*
X00559000Y00611000D01*
X00399000Y00451000D01*
X00314000Y00451000D01*
X00109000Y00771000D02*
X00109000Y01156000D01*
X00164000Y01093402D02*
X00209000Y01093402D01*
X00209000Y01106000D01*
X00214000Y01111000D01*
X00836402Y01111000D01*
X00844000Y01103402D01*
X00844000Y01183598D01*
X00841598Y01186000D01*
X00779000Y01061000D02*
X00789000Y01051000D01*
X00789000Y00946000D01*
X00819000Y00916000D01*
X00884000Y00916000D01*
X00919000Y00951000D01*
X00919000Y00991000D01*
X00934000Y01006000D01*
X00969000Y01006000D01*
X00929000Y01051000D02*
X00929000Y01148402D01*
X00916402Y01186000D01*
X01001598Y01186000D01*
X00844000Y01028598D02*
X00849000Y01023598D01*
X00854000Y00966000D01*
X00779000Y01061000D02*
X00434000Y01061000D01*
X00559000Y00786000D02*
X00859000Y00786000D01*
X00844000Y00691000D02*
X00934000Y00601000D01*
X00946402Y00601000D01*
X00949000Y00603598D01*
X00966402Y00603598D01*
X00999000Y00571000D01*
X01031402Y00571000D01*
X01034000Y00573598D01*
X01034000Y00648402D02*
X01004000Y00678402D01*
X00949000Y00678402D01*
X01014000Y00766000D02*
X01144000Y00766000D01*
X01129000Y00637929D02*
X01209000Y00637929D01*
X01209000Y00504071D02*
X01209000Y00437929D01*
X01129000Y00437929D02*
X01129000Y00504071D01*
X01129000Y00304071D02*
X01129000Y00242929D01*
X01209000Y00242929D02*
X01209000Y00304071D01*
X01209000Y00109071D02*
X01129000Y00109071D01*
X00844000Y00691000D02*
X00764000Y00691000D01*
X00799000Y00846000D02*
X00999000Y00846000D01*
X00799000Y00846000D02*
X00709000Y00936000D01*
X00664000Y00936000D01*
X00559000Y00431000D02*
X00559402Y00418402D01*
X00558402Y00361000D01*
X00164000Y00866000D02*
X00164000Y01018598D01*
M02*
