G75*
%MOIN*%
%OFA0B0*%
%FSLAX26Y26*%
%IPPOS*%
%LPD*%
%AMOC8*
5,1,8,0,0,1.08239X$1,22.5*
%
%ADD10R,0.067055X0.059181*%
%ADD11R,0.059181X0.067055*%
%ADD12R,0.055244X0.055244*%
%ADD13R,0.058000X0.024500*%
%ADD14R,0.028000X0.058000*%
%ADD15R,0.067055X0.024535*%
%ADD16R,0.058000X0.028000*%
%ADD17R,0.088000X0.088000*%
%ADD18R,0.158000X0.088000*%
%ADD19R,0.048000X0.088000*%
%ADD20R,0.067055X0.126110*%
%ADD21R,0.126110X0.067055*%
%ADD22R,0.067055X0.019811*%
%ADD23R,0.098551X0.145795*%
%ADD24R,0.067055X0.145795*%
%ADD25R,0.086740X0.106425*%
%ADD26C,0.036000*%
%ADD27R,0.047622X0.047622*%
D10*
X00219000Y01163598D03*
X00219000Y01238402D03*
X00304000Y01243402D03*
X00304000Y01168598D03*
X00084000Y01283598D03*
X00084000Y01358402D03*
X00084000Y01443598D03*
X00084000Y01518402D03*
X00864000Y01148402D03*
X00864000Y01073598D03*
X00979000Y01228598D03*
X00979000Y01303402D03*
D11*
X01086598Y01176000D03*
X01161402Y01176000D03*
X00981402Y00711000D03*
X00906598Y00711000D03*
X00491402Y00856000D03*
X00416598Y00856000D03*
X00676598Y01506000D03*
X00751402Y01506000D03*
D12*
X00834661Y01505000D03*
X00917339Y01505000D03*
D13*
X00928409Y01016000D03*
X00928409Y00990400D03*
X00928409Y00964800D03*
X00928409Y00939200D03*
X00928409Y00913600D03*
X00928409Y00888000D03*
X00928466Y00862409D03*
X01158781Y00862419D03*
X01158781Y00888019D03*
X01158781Y00913619D03*
X01158781Y00939219D03*
X01158781Y00964819D03*
X01158781Y00990409D03*
X01158781Y01016000D03*
X00377600Y01009200D03*
X00377600Y01034800D03*
X00377600Y01060400D03*
X00377600Y01086000D03*
X00377600Y00983600D03*
X00377600Y00958000D03*
X00224000Y00958000D03*
X00224000Y00983600D03*
X00224000Y01009200D03*
X00224000Y01034800D03*
X00224000Y01060400D03*
X00224000Y01086000D03*
D14*
X00375000Y01310000D03*
X00412000Y01310000D03*
X00449000Y01310000D03*
X00449000Y01421000D03*
X00412000Y01421000D03*
X00375000Y01421000D03*
X00520000Y01421000D03*
X00557000Y01421000D03*
X00594000Y01421000D03*
X00594000Y01310000D03*
X00557000Y01310000D03*
X00520000Y01310000D03*
D15*
X00589000Y01071000D03*
X00589000Y01045409D03*
X00589000Y01019819D03*
X00589000Y00994228D03*
X00742543Y00994228D03*
X00742543Y01019819D03*
X00742543Y01045409D03*
X00742543Y01071000D03*
D16*
X00720000Y00821000D03*
X00720000Y00784000D03*
X00720000Y00747000D03*
X00609000Y00747000D03*
X00609000Y00784000D03*
X00609000Y00821000D03*
D17*
X00629000Y01901000D03*
X00769000Y01901000D03*
D18*
X00849000Y01601000D03*
X00549000Y01601000D03*
D19*
X00699000Y01601000D03*
D20*
X00824630Y00126000D03*
X00903370Y00126000D03*
X00984630Y00126000D03*
X01063370Y00126000D03*
X01149630Y00126000D03*
X01228370Y00126000D03*
D21*
X01184000Y00346630D03*
X01184000Y00425370D03*
X01184000Y00511630D03*
X01184000Y00590370D03*
X01029000Y01811630D03*
X01029000Y01890370D03*
D22*
X00400850Y00806000D03*
X00400850Y00786315D03*
X00400850Y00766630D03*
X00400850Y00746945D03*
X00400850Y00727260D03*
X00204000Y00727260D03*
X00204000Y00746945D03*
X00204000Y00766630D03*
X00204000Y00786315D03*
X00204000Y00806000D03*
D23*
X00374669Y01607299D03*
X00087268Y01646669D03*
D24*
X00091205Y01823835D03*
X00370732Y01863205D03*
D25*
X00229000Y01516748D03*
D26*
X00217000Y00249000D02*
X00113000Y00249000D01*
X00113000Y00253000D01*
X00217000Y00253000D01*
X00217000Y00249000D01*
X00217000Y00299000D02*
X00113000Y00299000D01*
X00113000Y00303000D01*
X00217000Y00303000D01*
X00217000Y00299000D01*
X00217000Y00349000D02*
X00113000Y00349000D01*
X00113000Y00353000D01*
X00217000Y00353000D01*
X00217000Y00349000D01*
X00217000Y00399000D02*
X00113000Y00399000D01*
X00113000Y00403000D01*
X00217000Y00403000D01*
X00217000Y00399000D01*
X00217000Y00449000D02*
X00113000Y00449000D01*
X00113000Y00453000D01*
X00217000Y00453000D01*
X00217000Y00449000D01*
X00217000Y00499000D02*
X00113000Y00499000D01*
X00113000Y00503000D01*
X00217000Y00503000D01*
X00217000Y00499000D01*
X00217000Y00549000D02*
X00113000Y00549000D01*
X00113000Y00553000D01*
X00217000Y00553000D01*
X00217000Y00549000D01*
X00217000Y00599000D02*
X00113000Y00599000D01*
X00113000Y00603000D01*
X00217000Y00603000D01*
X00217000Y00599000D01*
X00641000Y00599000D02*
X00745000Y00599000D01*
X00641000Y00599000D02*
X00641000Y00603000D01*
X00745000Y00603000D01*
X00745000Y00599000D01*
X00745000Y00549000D02*
X00641000Y00549000D01*
X00641000Y00553000D01*
X00745000Y00553000D01*
X00745000Y00549000D01*
X00745000Y00499000D02*
X00641000Y00499000D01*
X00641000Y00503000D01*
X00745000Y00503000D01*
X00745000Y00499000D01*
X00745000Y00449000D02*
X00641000Y00449000D01*
X00641000Y00453000D01*
X00745000Y00453000D01*
X00745000Y00449000D01*
X00745000Y00399000D02*
X00641000Y00399000D01*
X00641000Y00403000D01*
X00745000Y00403000D01*
X00745000Y00399000D01*
X00745000Y00349000D02*
X00641000Y00349000D01*
X00641000Y00353000D01*
X00745000Y00353000D01*
X00745000Y00349000D01*
X00745000Y00299000D02*
X00641000Y00299000D01*
X00641000Y00303000D01*
X00745000Y00303000D01*
X00745000Y00299000D01*
X00745000Y00249000D02*
X00641000Y00249000D01*
X00641000Y00253000D01*
X00745000Y00253000D01*
X00745000Y00249000D01*
X00745000Y00199000D02*
X00641000Y00199000D01*
X00641000Y00203000D01*
X00745000Y00203000D01*
X00745000Y00199000D01*
X00745000Y00149000D02*
X00641000Y00149000D01*
X00641000Y00153000D01*
X00745000Y00153000D01*
X00745000Y00149000D01*
X00745000Y00099000D02*
X00641000Y00099000D01*
X00641000Y00103000D01*
X00745000Y00103000D01*
X00745000Y00099000D01*
D27*
X00824000Y00286000D03*
X00764000Y00691000D03*
X00859000Y00786000D03*
X00854000Y00966000D03*
X00929000Y01051000D03*
X00984000Y01111000D03*
X01024000Y00961000D03*
X01079000Y00926000D03*
X01079000Y01021000D03*
X01159000Y01091000D03*
X01249000Y00991000D03*
X01144000Y00766000D03*
X01214000Y00726000D03*
X01054000Y00726000D03*
X01039000Y00806000D03*
X01074000Y01271000D03*
X01159000Y01261000D03*
X00944000Y01736000D03*
X00849000Y01736000D03*
X00599000Y01476000D03*
X00584000Y01251000D03*
X00519000Y01251000D03*
X00424000Y01221000D03*
X00374000Y01251000D03*
X00434000Y01061000D03*
X00439000Y00961000D03*
X00524000Y00936000D03*
X00589000Y00951000D03*
X00664000Y00936000D03*
X00754000Y00956000D03*
X00659000Y01156000D03*
X00449000Y01476000D03*
X00374000Y01476000D03*
X00264000Y01741000D03*
X00444000Y01891000D03*
X00059000Y01001000D03*
X00164000Y00866000D03*
X00224000Y00862000D03*
X00338000Y00862000D03*
X00344000Y00911000D03*
X00394000Y00676000D03*
X00439000Y00621000D03*
X00484000Y00427000D03*
X00559000Y00431000D03*
X00604000Y00691000D03*
X00314000Y00451000D03*
X00314000Y00366000D03*
X00309000Y00301000D03*
X00164000Y00646000D03*
X00109000Y00771000D03*
X00059000Y00361000D03*
M02*
