G75*
%MOIN*%
%OFA0B0*%
%FSLAX26Y26*%
%IPPOS*%
%LPD*%
%AMOC8*
5,1,8,0,0,1.08239X$1,22.5*
%
%ADD10C,0.007000*%
%ADD11C,0.008000*%
%ADD12R,0.059055X0.051181*%
%ADD13R,0.051181X0.059055*%
%ADD14R,0.047244X0.047244*%
%ADD15R,0.050000X0.016500*%
%ADD16R,0.020000X0.050000*%
%ADD17R,0.059055X0.016535*%
%ADD18R,0.050000X0.020000*%
%ADD19R,0.080000X0.080000*%
%ADD20R,0.150000X0.080000*%
%ADD21R,0.040000X0.080000*%
%ADD22R,0.059055X0.118110*%
%ADD23R,0.118110X0.059055*%
%ADD24R,0.059055X0.011811*%
%ADD25R,0.090551X0.137795*%
%ADD26R,0.059055X0.137795*%
%ADD27R,0.078740X0.098425*%
%ADD28C,0.028800*%
%ADD29C,0.032000*%
%ADD30R,0.039622X0.039622*%
%ADD31C,0.016000*%
%ADD32C,0.012000*%
%ADD33C,0.040000*%
%ADD34C,0.024000*%
D10*
X00996446Y01393500D02*
X01048991Y01393500D01*
X01059500Y01404009D01*
X01059500Y01425027D01*
X01048991Y01435536D01*
X00996446Y01435536D01*
X00996446Y01457955D02*
X01059500Y01457955D01*
X01038482Y01478973D01*
X01059500Y01499991D01*
X00996446Y01499991D01*
X00996446Y01522410D02*
X01059500Y01522410D01*
X01059500Y01564446D01*
X01059500Y01586865D02*
X01059500Y01618392D01*
X01048991Y01628901D01*
X01006955Y01628901D01*
X00996446Y01618392D01*
X00996446Y01586865D01*
X01059500Y01586865D01*
X01027973Y01543428D02*
X01027973Y01522410D01*
X00996446Y01522410D02*
X00996446Y01564446D01*
X01208463Y01571830D02*
X01215636Y01564657D01*
X01244327Y01564657D01*
X01251500Y01571830D01*
X01251500Y01586175D01*
X01244327Y01593348D01*
X01229982Y01593348D01*
X01229982Y01579002D01*
X01215636Y01593348D02*
X01208463Y01586175D01*
X01208463Y01571830D01*
X01222809Y01610696D02*
X01251500Y01610696D01*
X01244327Y01649062D02*
X01251500Y01656235D01*
X01251500Y01670581D01*
X01244327Y01677753D01*
X01229982Y01677753D01*
X01222809Y01670581D01*
X01222809Y01656235D01*
X01229982Y01649062D01*
X01244327Y01649062D01*
X01222809Y01625042D02*
X01237155Y01610696D01*
X01222809Y01625042D02*
X01222809Y01632215D01*
X01222809Y01695102D02*
X01244327Y01695102D01*
X01251500Y01702274D01*
X01251500Y01723793D01*
X01222809Y01723793D01*
X01222809Y01741141D02*
X01222809Y01762659D01*
X01229982Y01769832D01*
X01244327Y01769832D01*
X01251500Y01762659D01*
X01251500Y01741141D01*
X01265845Y01741141D02*
X01222809Y01741141D01*
X01276290Y01832719D02*
X01283463Y01832719D01*
X01297809Y01832719D02*
X01326500Y01832719D01*
X01326500Y01839891D02*
X01326500Y01825546D01*
X01326500Y01808198D02*
X01304982Y01808198D01*
X01297809Y01801025D01*
X01297809Y01779507D01*
X01326500Y01779507D01*
X01319327Y01762159D02*
X01283463Y01762159D01*
X01283463Y01733468D02*
X01319327Y01733468D01*
X01326500Y01740640D01*
X01326500Y01754986D01*
X01319327Y01762159D01*
X01297809Y01825546D02*
X01297809Y01832719D01*
X01297809Y01856239D02*
X01326500Y01870584D01*
X01297809Y01884930D01*
X01297809Y01670080D02*
X01297809Y01648562D01*
X01304982Y01641389D01*
X01319327Y01641389D01*
X01326500Y01648562D01*
X01326500Y01670080D01*
X01283463Y01670080D01*
X01297809Y01624541D02*
X01297809Y01617368D01*
X01312155Y01603023D01*
X01326500Y01603023D02*
X01297809Y01603023D01*
X01304982Y01585675D02*
X01326500Y01585675D01*
X01326500Y01564156D01*
X01319327Y01556984D01*
X01312155Y01564156D01*
X01312155Y01585675D01*
X01304982Y01585675D02*
X01297809Y01578502D01*
X01297809Y01564156D01*
X01297809Y01539636D02*
X01326500Y01525290D01*
X01297809Y01510945D01*
X01297809Y01494097D02*
X01297809Y01486924D01*
X01312155Y01472578D01*
X01326500Y01472578D02*
X01297809Y01472578D01*
X01304982Y01455230D02*
X01326500Y01455230D01*
X01326500Y01433712D01*
X01319327Y01426539D01*
X01312155Y01433712D01*
X01312155Y01455230D01*
X01304982Y01455230D02*
X01297809Y01448058D01*
X01297809Y01433712D01*
X01304982Y01409191D02*
X01304982Y01380500D01*
X01326500Y01380500D02*
X01283463Y01380500D01*
X01283463Y01409191D02*
X01326500Y01409191D01*
X01251500Y01402018D02*
X01244327Y01409191D01*
X01229982Y01409191D01*
X01229982Y01394845D01*
X01244327Y01380500D02*
X01215636Y01380500D01*
X01208463Y01387673D01*
X01208463Y01402018D01*
X01215636Y01409191D01*
X01208463Y01426539D02*
X01222809Y01440885D01*
X01208463Y01455230D01*
X01251500Y01455230D01*
X01251500Y01472578D02*
X01237155Y01486924D01*
X01251500Y01501270D01*
X01208463Y01501270D01*
X01208463Y01472578D02*
X01251500Y01472578D01*
X01251500Y01426539D02*
X01208463Y01426539D01*
X01251500Y01387673D02*
X01244327Y01380500D01*
X01251500Y01387673D02*
X01251500Y01402018D01*
D11*
X01170000Y01393000D02*
X01141976Y01393000D01*
X01127964Y01407012D01*
X01141976Y01421024D01*
X01170000Y01421024D01*
X01170000Y01439039D02*
X01170000Y01453051D01*
X01170000Y01446045D02*
X01127964Y01446045D01*
X01127964Y01439039D01*
X01141976Y01476738D02*
X01141976Y01490750D01*
X01148982Y01497756D01*
X01170000Y01497756D01*
X01170000Y01476738D01*
X01162994Y01469732D01*
X01155988Y01476738D01*
X01155988Y01497756D01*
X01155988Y01515771D02*
X01141976Y01529783D01*
X01141976Y01536789D01*
X01141976Y01515771D02*
X01170000Y01515771D01*
X01170000Y01600177D02*
X01141976Y01600177D01*
X01127964Y01614188D01*
X01141976Y01628200D01*
X01170000Y01628200D01*
X01170000Y01646216D02*
X01170000Y01660228D01*
X01170000Y01653222D02*
X01141976Y01653222D01*
X01141976Y01646216D01*
X01127964Y01653222D02*
X01120958Y01653222D01*
X01141976Y01676909D02*
X01141976Y01697927D01*
X01148982Y01704932D01*
X01170000Y01704932D01*
X01170000Y01722948D02*
X01170000Y01736960D01*
X01170000Y01729954D02*
X01127964Y01729954D01*
X01127964Y01722948D01*
X01141976Y01760647D02*
X01141976Y01774659D01*
X01148982Y01781664D01*
X01170000Y01781664D01*
X01170000Y01760647D01*
X01162994Y01753641D01*
X01155988Y01760647D01*
X01155988Y01781664D01*
X01170000Y01676909D02*
X01141976Y01676909D01*
X01148982Y01628200D02*
X01148982Y01600177D01*
X01148982Y01421024D02*
X01148982Y01393000D01*
D12*
X00979000Y01303402D03*
X00979000Y01228598D03*
X00864000Y01148402D03*
X00864000Y01073598D03*
X00304000Y01168598D03*
X00304000Y01243402D03*
X00219000Y01238402D03*
X00219000Y01163598D03*
X00084000Y01283598D03*
X00084000Y01358402D03*
X00084000Y01443598D03*
X00084000Y01518402D03*
D13*
X00416598Y00856000D03*
X00491402Y00856000D03*
X00676598Y01506000D03*
X00751402Y01506000D03*
X01086598Y01176000D03*
X01161402Y01176000D03*
X00981402Y00711000D03*
X00906598Y00711000D03*
D14*
X00917339Y01505000D03*
X00834661Y01505000D03*
D15*
X00928409Y01016000D03*
X00928409Y00990400D03*
X00928409Y00964800D03*
X00928409Y00939200D03*
X00928409Y00913600D03*
X00928409Y00888000D03*
X00928466Y00862409D03*
X01158781Y00862419D03*
X01158781Y00888019D03*
X01158781Y00913619D03*
X01158781Y00939219D03*
X01158781Y00964819D03*
X01158781Y00990409D03*
X01158781Y01016000D03*
X00377600Y01009200D03*
X00377600Y01034800D03*
X00377600Y01060400D03*
X00377600Y01086000D03*
X00377600Y00983600D03*
X00377600Y00958000D03*
X00224000Y00958000D03*
X00224000Y00983600D03*
X00224000Y01009200D03*
X00224000Y01034800D03*
X00224000Y01060400D03*
X00224000Y01086000D03*
D16*
X00375000Y01310000D03*
X00412000Y01310000D03*
X00449000Y01310000D03*
X00449000Y01421000D03*
X00412000Y01421000D03*
X00375000Y01421000D03*
X00520000Y01421000D03*
X00557000Y01421000D03*
X00594000Y01421000D03*
X00594000Y01310000D03*
X00557000Y01310000D03*
X00520000Y01310000D03*
D17*
X00589000Y01071000D03*
X00589000Y01045409D03*
X00589000Y01019819D03*
X00589000Y00994228D03*
X00742543Y00994228D03*
X00742543Y01019819D03*
X00742543Y01045409D03*
X00742543Y01071000D03*
D18*
X00720000Y00821000D03*
X00720000Y00784000D03*
X00720000Y00747000D03*
X00609000Y00747000D03*
X00609000Y00784000D03*
X00609000Y00821000D03*
D19*
X00629000Y01901000D03*
X00769000Y01901000D03*
D20*
X00849000Y01601000D03*
X00549000Y01601000D03*
D21*
X00699000Y01601000D03*
D22*
X00824630Y00126000D03*
X00903370Y00126000D03*
X00984630Y00126000D03*
X01063370Y00126000D03*
X01149630Y00126000D03*
X01228370Y00126000D03*
D23*
X01184000Y00346630D03*
X01184000Y00425370D03*
X01184000Y00511630D03*
X01184000Y00590370D03*
X01029000Y01811630D03*
X01029000Y01890370D03*
D24*
X00400850Y00806000D03*
X00400850Y00786315D03*
X00400850Y00766630D03*
X00400850Y00746945D03*
X00400850Y00727260D03*
X00204000Y00727260D03*
X00204000Y00746945D03*
X00204000Y00766630D03*
X00204000Y00786315D03*
X00204000Y00806000D03*
D25*
X00374669Y01607299D03*
X00087268Y01646669D03*
D26*
X00091205Y01823835D03*
X00370732Y01863205D03*
D27*
X00229000Y01516748D03*
D28*
X00216600Y00249400D02*
X00113400Y00249400D01*
X00113400Y00252600D01*
X00216600Y00252600D01*
X00216600Y00249400D01*
X00216600Y00299400D02*
X00113400Y00299400D01*
X00113400Y00302600D01*
X00216600Y00302600D01*
X00216600Y00299400D01*
X00216600Y00349400D02*
X00113400Y00349400D01*
X00113400Y00352600D01*
X00216600Y00352600D01*
X00216600Y00349400D01*
X00216600Y00399400D02*
X00113400Y00399400D01*
X00113400Y00402600D01*
X00216600Y00402600D01*
X00216600Y00399400D01*
X00216600Y00449400D02*
X00113400Y00449400D01*
X00113400Y00452600D01*
X00216600Y00452600D01*
X00216600Y00449400D01*
X00216600Y00499400D02*
X00113400Y00499400D01*
X00113400Y00502600D01*
X00216600Y00502600D01*
X00216600Y00499400D01*
X00216600Y00549400D02*
X00113400Y00549400D01*
X00113400Y00552600D01*
X00216600Y00552600D01*
X00216600Y00549400D01*
X00216600Y00599400D02*
X00113400Y00599400D01*
X00113400Y00602600D01*
X00216600Y00602600D01*
X00216600Y00599400D01*
X00641400Y00599400D02*
X00744600Y00599400D01*
X00641400Y00599400D02*
X00641400Y00602600D01*
X00744600Y00602600D01*
X00744600Y00599400D01*
X00744600Y00549400D02*
X00641400Y00549400D01*
X00641400Y00552600D01*
X00744600Y00552600D01*
X00744600Y00549400D01*
X00744600Y00499400D02*
X00641400Y00499400D01*
X00641400Y00502600D01*
X00744600Y00502600D01*
X00744600Y00499400D01*
X00744600Y00449400D02*
X00641400Y00449400D01*
X00641400Y00452600D01*
X00744600Y00452600D01*
X00744600Y00449400D01*
X00744600Y00399400D02*
X00641400Y00399400D01*
X00641400Y00402600D01*
X00744600Y00402600D01*
X00744600Y00399400D01*
X00744600Y00349400D02*
X00641400Y00349400D01*
X00641400Y00352600D01*
X00744600Y00352600D01*
X00744600Y00349400D01*
X00744600Y00299400D02*
X00641400Y00299400D01*
X00641400Y00302600D01*
X00744600Y00302600D01*
X00744600Y00299400D01*
X00744600Y00249400D02*
X00641400Y00249400D01*
X00641400Y00252600D01*
X00744600Y00252600D01*
X00744600Y00249400D01*
X00744600Y00199400D02*
X00641400Y00199400D01*
X00641400Y00202600D01*
X00744600Y00202600D01*
X00744600Y00199400D01*
X00744600Y00149400D02*
X00641400Y00149400D01*
X00641400Y00152600D01*
X00744600Y00152600D01*
X00744600Y00149400D01*
X00744600Y00099400D02*
X00641400Y00099400D01*
X00641400Y00102600D01*
X00744600Y00102600D01*
X00744600Y00099400D01*
D29*
X00482000Y00256000D02*
X00482000Y00427000D01*
X00484000Y00427000D01*
X00229000Y01516748D02*
X00229000Y01741000D01*
X00264000Y01741000D01*
X00374669Y01811000D02*
X00374669Y01607299D01*
X00374669Y01811000D02*
X00444000Y01811000D01*
X00444000Y01891000D01*
X00374669Y01863205D02*
X00374669Y01811000D01*
X00374669Y01863205D02*
X00370732Y01863205D01*
X00091205Y01863205D01*
X00091205Y01823835D01*
X00087268Y01823835D01*
X00087268Y01646669D01*
X00699000Y01601000D02*
X00699000Y01811000D01*
X00864000Y01811000D01*
X00864000Y01891000D01*
X01029000Y01891000D01*
X01029000Y01890370D01*
X01029000Y01811630D02*
X00944000Y01811630D01*
X00944000Y01736000D01*
X00849000Y01736000D02*
X00849000Y01601000D01*
D30*
X00849000Y01736000D03*
X00944000Y01736000D03*
X01074000Y01271000D03*
X00984000Y01111000D03*
X00929000Y01051000D03*
X00854000Y00966000D03*
X00754000Y00956000D03*
X00664000Y00936000D03*
X00589000Y00951000D03*
X00524000Y00936000D03*
X00439000Y00961000D03*
X00434000Y01061000D03*
X00424000Y01221000D03*
X00374000Y01251000D03*
X00374000Y01476000D03*
X00449000Y01476000D03*
X00519000Y01251000D03*
X00584000Y01251000D03*
X00659000Y01156000D03*
X00599000Y01476000D03*
X00444000Y01891000D03*
X00264000Y01741000D03*
X00059000Y01001000D03*
X00164000Y00866000D03*
X00224000Y00862000D03*
X00338000Y00862000D03*
X00344000Y00911000D03*
X00394000Y00676000D03*
X00439000Y00621000D03*
X00484000Y00427000D03*
X00559000Y00431000D03*
X00604000Y00691000D03*
X00764000Y00691000D03*
X00859000Y00786000D03*
X01024000Y00961000D03*
X01079000Y00926000D03*
X01079000Y01021000D03*
X01159000Y01091000D03*
X01249000Y00991000D03*
X01144000Y00766000D03*
X01214000Y00726000D03*
X01054000Y00726000D03*
X01039000Y00806000D03*
X01159000Y01261000D03*
X00824000Y00286000D03*
X00314000Y00366000D03*
X00309000Y00301000D03*
X00314000Y00451000D03*
X00164000Y00646000D03*
X00109000Y00771000D03*
X00059000Y00361000D03*
D31*
X00059000Y00336000D01*
X00094000Y00301000D01*
X00165000Y00301000D01*
X00309000Y00301000D01*
X00299000Y00351000D02*
X00314000Y00366000D01*
X00299000Y00351000D02*
X00165000Y00351000D01*
X00165000Y00451000D02*
X00069000Y00451000D01*
X00039000Y00476000D01*
X00039000Y00896000D01*
X00124000Y00981000D01*
X00129000Y00981000D01*
X00146000Y00958000D02*
X00069000Y00881000D01*
X00069000Y00516000D01*
X00084000Y00501000D01*
X00165000Y00501000D01*
X00164000Y00646000D02*
X00164000Y00686000D01*
X00224000Y00862000D02*
X00224000Y00958000D01*
X00146000Y00958000D01*
X00224000Y00983600D02*
X00266400Y00983600D01*
X00279000Y00981000D01*
X00279000Y00936000D01*
X00280000Y00882000D01*
X00317000Y00958000D02*
X00314000Y00961000D01*
X00314000Y01034800D01*
X00224000Y01034800D01*
X00224000Y01009200D01*
X00224000Y01060400D02*
X00293400Y01060400D01*
X00304000Y01071000D01*
X00304000Y01168598D01*
X00304000Y01243402D02*
X00304000Y01321000D01*
X00339000Y01356000D01*
X00409000Y01356000D01*
X00414000Y01361000D01*
X00414000Y01419000D01*
X00412000Y01421000D01*
X00414000Y01421000D01*
X00414000Y01516000D01*
X00554000Y01516000D01*
X00554000Y01421000D01*
X00557000Y01421000D01*
X00520000Y01421000D02*
X00449000Y01421000D01*
X00449000Y01476000D01*
X00414000Y01516000D02*
X00414000Y01611000D01*
X00374669Y01611000D01*
X00374669Y01607299D01*
X00374000Y01476000D02*
X00374000Y01421000D01*
X00375000Y01421000D01*
X00355000Y01441000D01*
X00149000Y01441000D01*
X00149000Y01321000D01*
X00111598Y01283598D01*
X00084000Y01283598D01*
X00039000Y01236000D02*
X00059000Y01216000D01*
X00059000Y01001000D01*
X00039000Y01236000D02*
X00039000Y01401000D01*
X00084000Y01401000D01*
X00084000Y01358402D01*
X00084000Y01401000D02*
X00084000Y01443598D01*
X00084000Y01518402D02*
X00084000Y01643402D01*
X00087268Y01646669D01*
X00224000Y01243402D02*
X00219000Y01238402D01*
X00224000Y01243402D02*
X00304000Y01243402D01*
X00374000Y01251000D02*
X00374000Y01310000D01*
X00375000Y01310000D01*
X00449000Y01251000D02*
X00424000Y01221000D01*
X00449000Y01251000D02*
X00449000Y01310000D01*
X00469000Y01330000D01*
X00469000Y01351000D01*
X00484000Y01366000D01*
X00639000Y01366000D01*
X00649000Y01356000D01*
X00649000Y01266000D01*
X00594000Y01266000D02*
X00584000Y01251000D01*
X00584000Y01221000D01*
X00594000Y01211000D01*
X00694000Y01211000D01*
X00709000Y01196000D01*
X00709000Y01101000D01*
X00739000Y01071000D01*
X00742543Y01071000D01*
X00814000Y01071000D01*
X00814000Y00931000D01*
X00824000Y00921000D01*
X00869000Y00921000D01*
X00869000Y00841000D01*
X00884000Y00826000D01*
X00894000Y00826000D01*
X00906598Y00808402D01*
X00906598Y00711000D01*
X00981402Y00711000D02*
X01039000Y00711000D01*
X01054000Y00726000D01*
X01094000Y00806000D02*
X01094000Y00886000D01*
X01156762Y00886000D01*
X01158781Y00888019D01*
X01158781Y00862419D02*
X01179000Y00837200D01*
X01179000Y00701000D01*
X01184000Y00590370D01*
X01184000Y00511630D02*
X01118370Y00511630D01*
X01094000Y00536000D01*
X01094000Y00806000D01*
X01026000Y00888000D02*
X01054000Y00916000D01*
X01079000Y00916000D01*
X01079000Y00926000D01*
X01079000Y00916000D02*
X01119000Y00916000D01*
X01158781Y00939219D02*
X01195562Y00936000D01*
X01194000Y00936000D02*
X01222412Y00916647D01*
X01214000Y00908235D01*
X01214000Y00726000D01*
X01229000Y00911000D02*
X01222412Y00916647D01*
X01229000Y00911000D02*
X01274000Y00911000D01*
X01289000Y00941000D01*
X01289000Y01246000D01*
X01224000Y01246000D01*
X01219000Y01251000D01*
X01219000Y01286000D01*
X01199000Y01306000D01*
X01119000Y01306000D01*
X01109000Y01286000D01*
X01059000Y01286000D01*
X01074000Y01271000D01*
X01059000Y01286000D02*
X01034000Y01286000D01*
X01029000Y01291000D01*
X01029000Y01306000D01*
X00924000Y01306000D01*
X00924000Y01151000D01*
X00911402Y01148402D01*
X00864000Y01148402D01*
X00864000Y01073598D02*
X00864000Y00976000D01*
X00854000Y00966000D01*
X00869000Y00921000D02*
X00902200Y00939200D01*
X00928409Y00939200D01*
X00928409Y00913600D02*
X00976600Y00913600D01*
X00984000Y00921000D01*
X00984000Y01111000D01*
X00979000Y01116000D01*
X00979000Y01228598D01*
X00979000Y01303402D02*
X01026402Y01303402D01*
X01029000Y01306000D01*
X01034000Y01286000D01*
X01086598Y01176000D02*
X01086598Y01053598D01*
X01079000Y01046000D01*
X01079000Y01021000D01*
X01026000Y00888000D02*
X00928409Y00888000D01*
X00928466Y00887943D01*
X00928466Y00862409D01*
X00804000Y00751000D02*
X00764000Y00781000D01*
X00723000Y00781000D01*
X00720000Y00784000D01*
X00664000Y00816000D02*
X00659000Y00811000D01*
X00659000Y00691000D01*
X00604000Y00691000D01*
X00608000Y00746000D02*
X00579000Y00746000D01*
X00539000Y00706000D01*
X00539000Y00636000D01*
X00574000Y00601000D01*
X00693000Y00601000D01*
X00608000Y00746000D02*
X00609000Y00747000D01*
X00609000Y00784000D02*
X00571000Y00784000D01*
X00514000Y00841000D01*
X00511402Y00841000D01*
X00486402Y00866000D01*
X00491402Y00856000D02*
X00486402Y00921000D01*
X00481402Y00911000D01*
X00344000Y00911000D01*
X00338000Y00862000D02*
X00338000Y00796000D01*
X00394000Y00676000D02*
X00474000Y00676000D01*
X00474000Y00786000D01*
X00476500Y00788500D01*
X00486402Y00921000D02*
X00486402Y01173402D01*
X00504000Y01196000D01*
X00564000Y01196000D01*
X00584000Y01216000D01*
X00584000Y01221000D01*
X00594000Y01266000D02*
X00594000Y01310000D01*
X00594000Y01421000D02*
X00594000Y01476000D01*
X00599000Y01476000D01*
X00599000Y01516000D01*
X00609000Y01506000D01*
X00676598Y01506000D01*
X00599000Y01516000D02*
X00599000Y01601000D01*
X00549000Y01601000D01*
X00520000Y01310000D02*
X00519000Y01310000D01*
X00519000Y01251000D01*
X00486402Y01173402D02*
X00394000Y01086000D01*
X00377600Y01086000D01*
X00377600Y01060400D02*
X00377600Y01034800D01*
X00314000Y01034800D01*
X00317000Y00958000D02*
X00377600Y00958000D01*
X00377600Y00983600D01*
X00416400Y00983600D01*
X00439000Y00961000D01*
X00589000Y00951000D02*
X00589000Y00994228D01*
X00589000Y01019819D02*
X00630181Y01019819D01*
X00639000Y01011000D01*
X00639000Y00976000D01*
X00629000Y00966000D01*
X00609000Y00821000D02*
X00659000Y00821000D01*
X00664000Y00816000D01*
X00804000Y00751000D02*
X00804000Y00596000D01*
X00849000Y00541000D01*
X00954000Y00541000D01*
X01069630Y00425370D01*
X01184000Y00425370D01*
X01158781Y00990409D02*
X01253409Y00990409D01*
X01249000Y00991000D01*
X01161402Y01176000D02*
X01161402Y01258598D01*
X01159000Y01261000D01*
X00946000Y01505000D02*
X00969000Y01531000D01*
X00969000Y01711000D01*
X00944000Y01736000D01*
X00439000Y00621000D02*
X00439000Y00581000D01*
X00434000Y00576000D01*
X00224000Y01086000D02*
X00224000Y01158598D01*
X00219000Y01163598D01*
X00824000Y00286000D02*
X00824630Y00285370D01*
X00824630Y00126000D01*
D32*
X00693000Y00301000D02*
X00688000Y00306000D01*
X00614000Y00306000D01*
X00608000Y00326000D01*
X00608000Y00431000D01*
X00559000Y00431000D01*
X00482000Y00254000D02*
X00469000Y00256000D01*
X00474000Y00251000D01*
X00314000Y00451000D02*
X00259000Y00396000D01*
X00170000Y00396000D01*
X00165000Y00401000D01*
X00204000Y00727260D02*
X00400850Y00727260D01*
X00400850Y00746945D02*
X00399906Y00747000D01*
X00280000Y00747000D01*
X00280000Y00882000D01*
X00338000Y00796000D02*
X00338000Y00767000D01*
X00337780Y00766000D01*
X00400850Y00766630D01*
X00400850Y00786315D02*
X00451165Y00786000D01*
X00474000Y00786000D01*
X00476500Y00788500D02*
X00486402Y00843402D01*
X00486402Y00866000D01*
X00491402Y00856000D01*
X00524000Y00936000D02*
X00524000Y01050000D01*
X00534000Y01066000D01*
X00539000Y01066000D01*
X00544000Y01071000D01*
X00589000Y01071000D01*
X00589000Y01045409D02*
X00634591Y01045409D01*
X00664000Y01041000D01*
X00664000Y00936000D01*
X00629000Y00961000D02*
X00624000Y00956000D01*
X00624000Y00836000D01*
X00609000Y00821000D01*
X00629000Y00961000D02*
X00629000Y00966000D01*
X00689000Y01021000D02*
X00741362Y01021000D01*
X00742543Y01019819D01*
X00742543Y01045409D02*
X00784591Y01045409D01*
X00789000Y01041000D01*
X00789000Y00831000D01*
X00859000Y00786000D01*
X00764000Y00736000D02*
X00764000Y00691000D01*
X00764000Y00736000D02*
X00720000Y00735000D01*
X00720000Y00747000D01*
X00720000Y00821000D02*
X00720000Y00971685D01*
X00742543Y00994228D01*
X00742543Y00967457D01*
X00754000Y00956000D01*
X00689000Y01021000D02*
X00689000Y01086000D01*
X00659000Y01106000D01*
X00659000Y01156000D01*
X00751402Y01506000D02*
X00834661Y01506000D01*
X00834661Y01505000D01*
X00917339Y01505000D02*
X00946000Y01505000D01*
X01159000Y01091000D02*
X01159000Y01016219D01*
X01158781Y01016000D01*
X01162600Y00966000D02*
X01158781Y00964819D01*
X01162600Y00966000D02*
X01024000Y00961000D01*
X01039000Y00806000D02*
X01094000Y00806000D01*
X01144000Y00766000D02*
X01179000Y00701000D01*
X01158781Y00913619D02*
X01156400Y00916000D01*
X01119000Y00916000D01*
X01194000Y00936000D02*
X01195562Y00936000D01*
X00928409Y00964800D02*
X00860200Y00964800D01*
X00864000Y00966000D01*
X00854000Y00966000D01*
X00928409Y00990400D02*
X00928409Y01016000D01*
X00928409Y01050409D01*
X00929000Y01051000D01*
X00434000Y01061000D02*
X00434000Y01026000D01*
X00422200Y01009200D01*
X00377600Y01009200D01*
X00400850Y00875252D02*
X00416598Y00856000D01*
X00400850Y00875252D02*
X00400850Y00806000D01*
X00224000Y00983600D02*
X00131600Y00983600D01*
X00129000Y00981000D01*
X00164000Y00866000D02*
X00204000Y00806000D01*
X00204000Y00786315D02*
X00109315Y00786315D01*
X00109000Y00771000D01*
X00204000Y00766630D02*
X00204000Y00746945D01*
X00204000Y00727260D01*
D33*
X00204000Y00726000D01*
X00164000Y00686000D01*
X00164000Y00552000D01*
X00165000Y00551000D01*
X00169000Y00576000D02*
X00394000Y00576000D01*
X00434000Y00576000D01*
X00589000Y00576000D01*
X00694000Y00576000D01*
D34*
X00694000Y00552000D01*
X00778000Y00552000D01*
X00829000Y00501000D01*
X00934000Y00501000D01*
X01089000Y00346000D01*
X01183370Y00346000D01*
X01184000Y00346630D01*
X01264630Y00346630D01*
X01274000Y00356000D01*
X01274000Y00911000D01*
X01319000Y01261000D02*
X01284000Y01296000D01*
X01269000Y01296000D01*
X01219000Y01346000D01*
X01044000Y01346000D01*
X01029000Y01361000D01*
X00929000Y01361000D01*
X00854000Y01286000D01*
X00854000Y01251000D01*
X00849000Y01246000D01*
X00669000Y01246000D01*
X00649000Y01266000D01*
X00693000Y00601000D02*
X00694000Y00600000D01*
X00694000Y00576000D01*
X00694000Y00552000D02*
X00693000Y00551000D01*
X00693000Y00501000D02*
X00764000Y00501000D01*
X00814000Y00451000D01*
X00914000Y00451000D01*
X01109000Y00256000D01*
X01149000Y00256000D01*
X01229000Y00176000D01*
X01229000Y00126630D01*
X01228370Y00126000D01*
X01304000Y00061000D02*
X01284000Y00041000D01*
X00983000Y00041000D01*
X00982000Y00123000D01*
X00984630Y00126000D02*
X00984000Y00126630D01*
X00984000Y00211000D01*
X00864000Y00331000D01*
X00789000Y00331000D01*
X00759000Y00301000D01*
X00693000Y00301000D01*
X00688000Y00256000D02*
X00693000Y00251000D01*
X00474000Y00251000D01*
X00165000Y00251000D01*
X00165000Y00551000D02*
X00165000Y00572000D01*
X00169000Y00576000D01*
X00165000Y00601000D02*
X00165000Y00551000D01*
X00394000Y00576000D02*
X00393000Y00254000D01*
X00482000Y00254000D02*
X00482000Y00256000D01*
X00604000Y00256000D01*
X00688000Y00256000D01*
X00693000Y00351000D02*
X00754000Y00351000D01*
X00774000Y00371000D01*
X00879000Y00371000D01*
X01064000Y00186000D01*
X01064000Y00126630D01*
X01063370Y00126000D01*
X01094000Y00216000D02*
X01124000Y00216000D01*
X01149000Y00191000D01*
X01149000Y00126630D01*
X01149630Y00126000D01*
X01094000Y00216000D02*
X00904000Y00406000D01*
X00799000Y00406000D01*
X00754000Y00451000D01*
X00693000Y00451000D01*
X00589000Y00576000D02*
X00394000Y00576000D01*
X00604000Y00256000D02*
X00599000Y00251000D01*
X00599000Y00166000D01*
X00614000Y00151000D01*
X00693000Y00151000D01*
X00693000Y00101000D01*
X00689000Y00097000D01*
X00689000Y00046000D01*
X00699000Y00036000D01*
X00899000Y00036000D01*
X00903370Y00040370D01*
X00903370Y00126000D01*
X01304000Y00061000D02*
X01304000Y00336000D01*
X01319000Y00351000D01*
X01319000Y01261000D01*
M02*
